<svg version="1.1" xmlns="http://www.w3.org/2000/svg" viewBox="0 0 1429.1877550411982 1006.4694763974746" width="1429.1877550411982" height="1006.4694763974746" filter="invert(93%) hue-rotate(180deg)">
  <!-- svg-source:excalidraw -->
  
  <defs>
    <style class="style-fonts">
      @font-face {
        font-family: "Virgil";
        src: url("https://excalidraw.com/Virgil.woff2");
      }
      @font-face {
        font-family: "Cascadia";
        src: url("https://excalidraw.com/Cascadia.woff2");
      }
      @font-face {
        font-family: "Assistant";
        src: url("https://excalidraw.com/Assistant-Regular.woff2");
      }
    </style>
    
  </defs>
  <rect x="0" y="0" width="1429.1877550411982" height="1006.4694763974746" fill="#ffffff"></rect><g transform="translate(536.1480345215984 10) rotate(0 168.32611083984375 38.75755544122046)"><text x="0" y="0" font-family="Virgil, Segoe UI Emoji" font-size="62.01208870595268px" fill="#2f9e44" text-anchor="start" style="white-space: pre;" direction="ltr" dominant-baseline="text-before-edge">Series Plus</text></g><g transform="translate(472.1739747031729 170.78151164007386) rotate(0 259.7759094238281 22.5)"><text x="0" y="0" font-family="Virgil, Segoe UI Emoji" font-size="36px" fill="#e03131" text-anchor="start" style="white-space: pre;" direction="ltr" dominant-baseline="text-before-edge">Diagrama de entidad relación</text></g><g stroke-linecap="round" transform="translate(1072.7348301906686 443.19299047027425) rotate(0 69.20012728737731 27.5)"><path d="M13.75 0 C46.25 0, 78.74 0, 124.65 0 M13.75 0 C42.11 0, 70.48 0, 124.65 0 M124.65 0 C133.82 0, 138.4 4.58, 138.4 13.75 M124.65 0 C133.82 0, 138.4 4.58, 138.4 13.75 M138.4 13.75 C138.4 20.83, 138.4 27.9, 138.4 41.25 M138.4 13.75 C138.4 20.91, 138.4 28.06, 138.4 41.25 M138.4 41.25 C138.4 50.42, 133.82 55, 124.65 55 M138.4 41.25 C138.4 50.42, 133.82 55, 124.65 55 M124.65 55 C97.68 55, 70.7 55, 13.75 55 M124.65 55 C82.34 55, 40.02 55, 13.75 55 M13.75 55 C4.58 55, 0 50.42, 0 41.25 M13.75 55 C4.58 55, 0 50.42, 0 41.25 M0 41.25 C0 32.16, 0 23.07, 0 13.75 M0 41.25 C0 32, 0 22.75, 0 13.75 M0 13.75 C0 4.58, 4.58 0, 13.75 0 M0 13.75 C0 4.58, 4.58 0, 13.75 0" stroke="#e03131" stroke-width="2" fill="none"></path></g><g transform="translate(1099.290975544452 453.19299047027425) rotate(0 42.64398193359375 17.5)"><text x="42.64398193359375" y="0" font-family="Virgil, Segoe UI Emoji" font-size="28px" fill="#e03131" text-anchor="middle" style="white-space: pre;" direction="ltr" dominant-baseline="text-before-edge">genero</text></g><g stroke-linecap="round" transform="translate(1264.9153065303053 381.25430525111256) rotate(0 55.34434260958113 32)"><path d="M110.69 32 C110.69 33.52, 110.5 35.05, 110.13 36.55 C109.75 38.06, 109.19 39.56, 108.45 41.02 C107.71 42.47, 106.78 43.91, 105.69 45.29 C104.6 46.67, 103.32 48.02, 101.9 49.3 C100.48 50.58, 98.89 51.81, 97.17 52.96 C95.45 54.1, 93.57 55.19, 91.59 56.18 C89.6 57.18, 87.47 58.1, 85.27 58.92 C83.06 59.74, 80.72 60.48, 78.34 61.11 C75.95 61.74, 73.46 62.28, 70.94 62.7 C68.42 63.13, 65.82 63.46, 63.22 63.67 C60.62 63.89, 57.97 64, 55.34 64 C52.72 64, 50.07 63.89, 47.47 63.67 C44.87 63.46, 42.27 63.13, 39.75 62.7 C37.23 62.28, 34.74 61.74, 32.35 61.11 C29.97 60.48, 27.63 59.74, 25.42 58.92 C23.21 58.1, 21.09 57.18, 19.1 56.18 C17.12 55.19, 15.24 54.1, 13.52 52.96 C11.8 51.81, 10.21 50.58, 8.79 49.3 C7.37 48.02, 6.09 46.67, 5 45.29 C3.91 43.91, 2.98 42.47, 2.24 41.02 C1.5 39.56, 0.94 38.06, 0.56 36.55 C0.19 35.05, 0 33.52, 0 32 C0 30.48, 0.19 28.95, 0.56 27.45 C0.94 25.94, 1.5 24.44, 2.24 22.98 C2.98 21.53, 3.91 20.09, 5 18.71 C6.09 17.33, 7.37 15.98, 8.79 14.7 C10.21 13.42, 11.8 12.19, 13.52 11.04 C15.24 9.9, 17.12 8.81, 19.1 7.82 C21.09 6.82, 23.21 5.9, 25.42 5.08 C27.63 4.26, 29.97 3.52, 32.35 2.89 C34.74 2.26, 37.23 1.72, 39.75 1.3 C42.27 0.87, 44.87 0.54, 47.47 0.33 C50.07 0.11, 52.72 0, 55.34 0 C57.97 0, 60.62 0.11, 63.22 0.33 C65.82 0.54, 68.42 0.87, 70.94 1.3 C73.46 1.72, 75.95 2.26, 78.34 2.89 C80.72 3.52, 83.06 4.26, 85.27 5.08 C87.47 5.9, 89.6 6.82, 91.59 7.82 C93.57 8.81, 95.45 9.9, 97.17 11.04 C98.89 12.19, 100.48 13.42, 101.9 14.7 C103.32 15.98, 104.6 17.33, 105.69 18.71 C106.78 20.09, 107.71 21.53, 108.45 22.98 C109.19 24.44, 109.75 25.94, 110.13 27.45 C110.5 28.95, 110.59 31.24, 110.69 32 C110.78 32.76, 110.78 31.24, 110.69 32" stroke="#e03131" stroke-width="2" fill="none"></path></g><g transform="translate(1309.0932991290704 395.6268882531431) rotate(0 11.031990051269531 17.5)"><text x="11.031990051269531" y="0" font-family="Virgil, Segoe UI Emoji" font-size="28px" fill="#e03131" text-anchor="middle" style="white-space: pre;" direction="ltr" dominant-baseline="text-before-edge">id</text></g><g stroke-linecap="round" transform="translate(1280.7875004664438 460.7996378984351) rotate(0 69.20012728737731 32)"><path d="M138.4 32 C138.4 33.39, 138.2 34.8, 137.81 36.18 C137.42 37.56, 136.82 38.94, 136.04 40.28 C135.26 41.63, 134.28 42.96, 133.13 44.25 C131.98 45.53, 130.63 46.79, 129.13 48 C127.62 49.21, 125.93 50.38, 124.1 51.48 C122.27 52.58, 120.26 53.64, 118.13 54.63 C116 55.61, 113.72 56.54, 111.33 57.39 C108.94 58.23, 106.41 59.02, 103.8 59.71 C101.19 60.41, 98.46 61.03, 95.68 61.56 C92.9 62.1, 90.02 62.55, 87.11 62.91 C84.2 63.27, 81.22 63.54, 78.23 63.73 C75.25 63.91, 72.21 64, 69.2 64 C66.19 64, 63.15 63.91, 60.17 63.73 C57.18 63.54, 54.2 63.27, 51.29 62.91 C48.38 62.55, 45.5 62.1, 42.72 61.56 C39.94 61.03, 37.21 60.41, 34.6 59.71 C31.99 59.02, 29.46 58.23, 27.07 57.39 C24.69 56.54, 22.4 55.61, 20.27 54.63 C18.14 53.64, 16.13 52.58, 14.3 51.48 C12.47 50.38, 10.78 49.21, 9.27 48 C7.77 46.79, 6.42 45.53, 5.27 44.25 C4.12 42.96, 3.14 41.63, 2.36 40.28 C1.58 38.94, 0.99 37.56, 0.59 36.18 C0.2 34.8, 0 33.39, 0 32 C0 30.61, 0.2 29.2, 0.59 27.82 C0.99 26.44, 1.58 25.06, 2.36 23.72 C3.14 22.37, 4.12 21.04, 5.27 19.75 C6.42 18.47, 7.77 17.21, 9.27 16 C10.78 14.79, 12.47 13.62, 14.3 12.52 C16.13 11.42, 18.14 10.36, 20.27 9.37 C22.4 8.39, 24.69 7.46, 27.07 6.61 C29.46 5.77, 31.99 4.98, 34.6 4.29 C37.21 3.59, 39.94 2.97, 42.72 2.44 C45.5 1.9, 48.38 1.45, 51.29 1.09 C54.2 0.73, 57.18 0.46, 60.17 0.27 C63.15 0.09, 66.19 0, 69.2 0 C72.21 0, 75.25 0.09, 78.23 0.27 C81.22 0.46, 84.2 0.73, 87.11 1.09 C90.02 1.45, 92.9 1.9, 95.68 2.44 C98.46 2.97, 101.19 3.59, 103.8 4.29 C106.41 4.98, 108.94 5.77, 111.33 6.61 C113.72 7.46, 116 8.39, 118.13 9.37 C120.26 10.36, 122.27 11.42, 124.1 12.52 C125.93 13.62, 127.62 14.79, 129.13 16 C130.63 17.21, 131.98 18.47, 133.13 19.75 C134.28 21.04, 135.26 22.37, 136.04 23.72 C136.82 25.06, 137.42 26.44, 137.81 27.82 C138.2 29.2, 138.3 31.3, 138.4 32 C138.5 32.7, 138.5 31.3, 138.4 32" stroke="#e03131" stroke-width="2" fill="none"></path></g><g transform="translate(1306.1097646032254 475.1722209004656) rotate(0 43.94598388671875 17.5)"><text x="43.94598388671875" y="0" font-family="Virgil, Segoe UI Emoji" font-size="28px" fill="#e03131" text-anchor="middle" style="white-space: pre;" direction="ltr" dominant-baseline="text-before-edge">nombre</text></g><g stroke-linecap="round"><g transform="translate(1224.3583140019991 448.61512057379286) rotate(0 14.00581138021397 -17.69679112284257)"><path d="M0 0 C4.67 -5.9, 23.34 -29.49, 28.01 -35.39 M0 0 C4.67 -5.9, 23.34 -29.49, 28.01 -35.39" stroke="#e03131" stroke-width="2" fill="none"></path></g><g transform="translate(1224.3583140019991 448.61512057379286) rotate(0 14.00581138021397 -17.69679112284257)"><path d="M20.9 -13.97 C22.95 -20.14, 25 -26.31, 28.01 -35.39 M20.9 -13.97 C22.92 -20.04, 24.93 -26.11, 28.01 -35.39" stroke="#e03131" stroke-width="2" fill="none"></path></g><g transform="translate(1224.3583140019991 448.61512057379286) rotate(0 14.00581138021397 -17.69679112284257)"><path d="M8.8 -23.55 C14.33 -26.96, 19.87 -30.38, 28.01 -35.39 M8.8 -23.55 C14.24 -26.91, 19.68 -30.26, 28.01 -35.39" stroke="#e03131" stroke-width="2" fill="none"></path></g></g><mask></mask><g stroke-linecap="round"><g transform="translate(1219.4670752426086 501.9410131895902) rotate(0 25.35753198219902 -3.734320061784956)"><path d="M0 0 C8.45 -1.24, 42.26 -6.22, 50.72 -7.47 M0 0 C8.45 -1.24, 42.26 -6.22, 50.72 -7.47" stroke="#e03131" stroke-width="2" fill="none"></path></g><g transform="translate(1219.4670752426086 501.9410131895902) rotate(0 25.35753198219902 -3.734320061784956)"><path d="M28.72 4.41 C34.06 1.53, 39.41 -1.36, 50.72 -7.47 M28.72 4.41 C34.22 1.44, 39.72 -1.53, 50.72 -7.47" stroke="#e03131" stroke-width="2" fill="none"></path></g><g transform="translate(1219.4670752426086 501.9410131895902) rotate(0 25.35753198219902 -3.734320061784956)"><path d="M26.23 -12.51 C32.18 -11.28, 38.13 -10.06, 50.72 -7.47 M26.23 -12.51 C32.35 -11.25, 38.48 -9.99, 50.72 -7.47" stroke="#e03131" stroke-width="2" fill="none"></path></g></g><mask></mask><g stroke-linecap="round" transform="translate(484.49650707307103 463.521141634282) rotate(0 87.29166383309672 27.07145847315121)"><path d="M13.54 0 C53.14 0, 92.74 0, 161.05 0 M13.54 0 C59 0, 104.47 0, 161.05 0 M161.05 0 C170.07 0, 174.58 4.51, 174.58 13.54 M161.05 0 C170.07 0, 174.58 4.51, 174.58 13.54 M174.58 13.54 C174.58 22.53, 174.58 31.52, 174.58 40.61 M174.58 13.54 C174.58 23.59, 174.58 33.63, 174.58 40.61 M174.58 40.61 C174.58 49.63, 170.07 54.14, 161.05 54.14 M174.58 40.61 C174.58 49.63, 170.07 54.14, 161.05 54.14 M161.05 54.14 C116.78 54.14, 72.52 54.14, 13.54 54.14 M161.05 54.14 C110.11 54.14, 59.17 54.14, 13.54 54.14 M13.54 54.14 C4.51 54.14, 0 49.63, 0 40.61 M13.54 54.14 C4.51 54.14, 0 49.63, 0 40.61 M0 40.61 C0 34.33, 0 28.06, 0 13.54 M0 40.61 C0 31.25, 0 21.89, 0 13.54 M0 13.54 C0 4.51, 4.51 0, 13.54 0 M0 13.54 C0 4.51, 4.51 0, 13.54 0" stroke="#e03131" stroke-width="2" fill="none"></path></g><g transform="translate(539.7841883622225 473.0926001074333) rotate(0 32.00398254394531 17.5)"><text x="32.00398254394531" y="0" font-family="Virgil, Segoe UI Emoji" font-size="28px" fill="#e03131" text-anchor="middle" style="white-space: pre;" direction="ltr" dominant-baseline="text-before-edge">serie</text></g><g stroke-linecap="round" transform="translate(390.7130521195007 288.7465319971234) rotate(0 59.0446877097269 32)"><path d="M118.09 32 C118.09 33.52, 117.89 35.05, 117.49 36.55 C117.09 38.06, 116.49 39.56, 115.7 41.02 C114.91 42.47, 113.92 43.91, 112.75 45.29 C111.59 46.67, 110.23 48.02, 108.72 49.3 C107.2 50.58, 105.5 51.81, 103.67 52.96 C101.83 54.1, 99.83 55.19, 97.71 56.18 C95.59 57.18, 93.32 58.1, 90.97 58.92 C88.61 59.74, 86.12 60.48, 83.57 61.11 C81.02 61.74, 78.37 62.28, 75.68 62.7 C72.99 63.13, 70.22 63.46, 67.45 63.67 C64.68 63.89, 61.85 64, 59.04 64 C56.24 64, 53.41 63.89, 50.64 63.67 C47.87 63.46, 45.1 63.13, 42.41 62.7 C39.72 62.28, 37.06 61.74, 34.52 61.11 C31.97 60.48, 29.48 59.74, 27.12 58.92 C24.77 58.1, 22.5 57.18, 20.38 56.18 C18.26 55.19, 16.26 54.1, 14.42 52.96 C12.59 51.81, 10.89 50.58, 9.37 49.3 C7.86 48.02, 6.5 46.67, 5.34 45.29 C4.17 43.91, 3.18 42.47, 2.39 41.02 C1.6 39.56, 1 38.06, 0.6 36.55 C0.2 35.05, 0 33.52, 0 32 C0 30.48, 0.2 28.95, 0.6 27.45 C1 25.94, 1.6 24.44, 2.39 22.98 C3.18 21.53, 4.17 20.09, 5.34 18.71 C6.5 17.33, 7.86 15.98, 9.37 14.7 C10.89 13.42, 12.59 12.19, 14.42 11.04 C16.26 9.9, 18.26 8.81, 20.38 7.82 C22.5 6.82, 24.77 5.9, 27.12 5.08 C29.48 4.26, 31.97 3.52, 34.52 2.89 C37.06 2.26, 39.72 1.72, 42.41 1.3 C45.1 0.87, 47.87 0.54, 50.64 0.33 C53.41 0.11, 56.24 0, 59.04 0 C61.85 0, 64.68 0.11, 67.45 0.33 C70.22 0.54, 72.99 0.87, 75.68 1.3 C78.37 1.72, 81.02 2.26, 83.57 2.89 C86.12 3.52, 88.61 4.26, 90.97 5.08 C93.32 5.9, 95.59 6.82, 97.71 7.82 C99.83 8.81, 101.83 9.9, 103.67 11.04 C105.5 12.19, 107.2 13.42, 108.72 14.7 C110.23 15.98, 111.59 17.33, 112.75 18.71 C113.92 20.09, 114.91 21.53, 115.7 22.98 C116.49 24.44, 117.09 25.94, 117.49 27.45 C117.89 28.95, 117.99 31.24, 118.09 32 C118.19 32.76, 118.19 31.24, 118.09 32" stroke="#e03131" stroke-width="2" fill="none"></path></g><g transform="translate(438.97485070536817 303.1191149991539) rotate(0 11.031990051269531 17.5)"><text x="11.031990051269531" y="0" font-family="Virgil, Segoe UI Emoji" font-size="28px" fill="#e03131" text-anchor="middle" style="white-space: pre;" direction="ltr" dominant-baseline="text-before-edge">id</text></g><g stroke-linecap="round" transform="translate(233.2054966782802 330.5191983207844) rotate(0 63.320377910018436 37.375)"><path d="M126.64 37.38 C126.64 39, 126.46 40.64, 126.1 42.25 C125.74 43.87, 125.2 45.48, 124.48 47.05 C123.77 48.62, 122.88 50.18, 121.82 51.68 C120.77 53.18, 119.53 54.65, 118.16 56.06 C116.78 57.47, 115.23 58.84, 113.56 60.13 C111.88 61.42, 110.04 62.65, 108.09 63.8 C106.15 64.95, 104.05 66.04, 101.87 67.03 C99.68 68.02, 97.37 68.93, 94.98 69.74 C92.59 70.56, 90.1 71.28, 87.55 71.9 C85.01 72.53, 82.37 73.06, 79.71 73.48 C77.05 73.9, 74.32 74.22, 71.59 74.43 C68.85 74.64, 66.08 74.75, 63.32 74.75 C60.57 74.75, 57.79 74.64, 55.06 74.43 C52.32 74.22, 49.59 73.9, 46.93 73.48 C44.27 73.06, 41.63 72.53, 39.09 71.9 C36.54 71.28, 34.05 70.56, 31.66 69.74 C29.27 68.93, 26.96 68.02, 24.77 67.03 C22.59 66.04, 20.49 64.95, 18.55 63.8 C16.6 62.65, 14.76 61.42, 13.08 60.13 C11.41 58.84, 9.86 57.47, 8.48 56.06 C7.11 54.65, 5.87 53.18, 4.82 51.68 C3.77 50.18, 2.87 48.62, 2.16 47.05 C1.44 45.48, 0.9 43.87, 0.54 42.25 C0.18 40.64, 0 39, 0 37.38 C0 35.75, 0.18 34.11, 0.54 32.5 C0.9 30.88, 1.44 29.27, 2.16 27.7 C2.87 26.13, 3.77 24.57, 4.82 23.07 C5.87 21.57, 7.11 20.1, 8.48 18.69 C9.86 17.28, 11.41 15.91, 13.08 14.62 C14.76 13.33, 16.6 12.1, 18.55 10.95 C20.49 9.8, 22.59 8.71, 24.77 7.72 C26.96 6.73, 29.27 5.82, 31.66 5.01 C34.05 4.19, 36.54 3.47, 39.09 2.85 C41.63 2.22, 44.27 1.69, 46.93 1.27 C49.59 0.85, 52.32 0.53, 55.06 0.32 C57.79 0.11, 60.57 0, 63.32 0 C66.08 0, 68.85 0.11, 71.59 0.32 C74.32 0.53, 77.05 0.85, 79.71 1.27 C82.37 1.69, 85.01 2.22, 87.55 2.85 C90.1 3.47, 92.59 4.19, 94.98 5.01 C97.37 5.82, 99.68 6.73, 101.87 7.72 C104.05 8.71, 106.15 9.8, 108.09 10.95 C110.04 12.1, 111.88 13.33, 113.56 14.62 C115.23 15.91, 116.78 17.28, 118.16 18.69 C119.53 20.1, 120.77 21.57, 121.82 23.07 C122.88 24.57, 123.77 26.13, 124.48 27.7 C125.2 29.27, 125.74 30.88, 126.1 32.5 C126.46 34.11, 126.55 36.56, 126.64 37.37 C126.73 38.19, 126.73 36.56, 126.64 37.38" stroke="#e03131" stroke-width="2" fill="none"></path></g><g transform="translate(258.4756278924508 350.4660823739373) rotate(0 38.275978088378906 17.5)"><text x="38.275978088378906" y="0" font-family="Virgil, Segoe UI Emoji" font-size="28px" fill="#e03131" text-anchor="middle" style="white-space: pre;" direction="ltr" dominant-baseline="text-before-edge">titulo</text></g><g stroke-linecap="round" transform="translate(130.65800290469122 505.6638407678163) rotate(0 107.19235403338826 38)"><path d="M214.38 38 C214.38 39.32, 214.19 40.66, 213.8 41.97 C213.41 43.29, 212.82 44.61, 212.04 45.9 C211.27 47.2, 210.29 48.48, 209.14 49.74 C207.98 51, 206.64 52.25, 205.12 53.46 C203.6 54.67, 201.89 55.85, 200.02 57 C198.16 58.15, 196.11 59.26, 193.91 60.34 C191.72 61.41, 189.35 62.44, 186.85 63.43 C184.35 64.41, 181.69 65.35, 178.92 66.24 C176.14 67.13, 173.22 67.96, 170.2 68.74 C167.18 69.52, 164.02 70.25, 160.79 70.91 C157.55 71.57, 154.2 72.18, 150.79 72.71 C147.38 73.25, 143.87 73.73, 140.32 74.14 C136.76 74.55, 133.13 74.89, 129.48 75.17 C125.83 75.44, 122.11 75.65, 118.4 75.79 C114.68 75.93, 110.93 76, 107.19 76 C103.46 76, 99.7 75.93, 95.99 75.79 C92.27 75.65, 88.56 75.44, 84.91 75.17 C81.25 74.89, 77.62 74.55, 74.07 74.14 C70.52 73.73, 67.01 73.25, 63.59 72.71 C60.18 72.18, 56.83 71.57, 53.6 70.91 C50.36 70.25, 47.21 69.52, 44.19 68.74 C41.16 67.96, 38.24 67.13, 35.47 66.24 C32.69 65.35, 30.03 64.41, 27.53 63.43 C25.03 62.44, 22.67 61.41, 20.47 60.34 C18.28 59.26, 16.23 58.15, 14.36 57 C12.49 55.85, 10.79 54.67, 9.27 53.46 C7.75 52.25, 6.4 51, 5.25 49.74 C4.09 48.48, 3.12 47.2, 2.34 45.9 C1.57 44.61, 0.98 43.29, 0.59 41.97 C0.2 40.66, 0 39.32, 0 38 C0 36.68, 0.2 35.34, 0.59 34.03 C0.98 32.71, 1.57 31.39, 2.34 30.1 C3.12 28.8, 4.09 27.52, 5.25 26.26 C6.4 25, 7.75 23.75, 9.27 22.54 C10.79 21.33, 12.49 20.15, 14.36 19 C16.23 17.85, 18.28 16.74, 20.47 15.66 C22.67 14.59, 25.03 13.56, 27.53 12.57 C30.03 11.59, 32.69 10.65, 35.47 9.76 C38.24 8.87, 41.16 8.04, 44.19 7.26 C47.21 6.48, 50.36 5.75, 53.6 5.09 C56.83 4.43, 60.18 3.82, 63.59 3.29 C67.01 2.75, 70.52 2.27, 74.07 1.86 C77.62 1.45, 81.25 1.11, 84.91 0.83 C88.56 0.56, 92.27 0.35, 95.99 0.21 C99.7 0.07, 103.46 0, 107.19 0 C110.93 0, 114.68 0.07, 118.4 0.21 C122.11 0.35, 125.83 0.56, 129.48 0.83 C133.13 1.11, 136.76 1.45, 140.32 1.86 C143.87 2.27, 147.38 2.75, 150.79 3.29 C154.2 3.82, 157.55 4.43, 160.79 5.09 C164.02 5.75, 167.18 6.48, 170.2 7.26 C173.22 8.04, 176.14 8.87, 178.92 9.76 C181.69 10.65, 184.35 11.59, 186.85 12.57 C189.35 13.56, 191.72 14.59, 193.91 15.66 C196.11 16.74, 198.16 17.85, 200.02 19 C201.89 20.15, 203.6 21.33, 205.12 22.54 C206.64 23.75, 207.98 25, 209.14 26.26 C210.29 27.52, 211.27 28.8, 212.04 30.1 C212.82 31.39, 213.41 32.71, 213.8 34.03 C214.19 35.34, 214.29 37.34, 214.38 38 C214.48 38.66, 214.48 37.34, 214.38 38" stroke="#e03131" stroke-width="2" fill="none"></path></g><g transform="translate(167.42395740327615 526.2937830827275) rotate(0 70.62995910644531 17.5)"><text x="70.62995910644531" y="0" font-family="Virgil, Segoe UI Emoji" font-size="28px" fill="#e03131" text-anchor="middle" style="white-space: pre;" direction="ltr" dominant-baseline="text-before-edge">descripción</text></g><g stroke-linecap="round"><g transform="translate(541.2995527710368 453.57079653413575) rotate(0 -45.10133804911786 -46.226911907831095)"><path d="M0 0 C-15.03 -15.41, -75.17 -77.04, -90.2 -92.45 M0 0 C-15.03 -15.41, -75.17 -77.04, -90.2 -92.45" stroke="#e03131" stroke-width="2" fill="none"></path></g><g transform="translate(541.2995527710368 453.57079653413575) rotate(0 -45.10133804911786 -46.226911907831095)"><path d="M-67.68 -81.61 C-73.69 -84.5, -79.7 -87.4, -90.2 -92.45 M-67.68 -81.61 C-74.46 -84.87, -81.24 -88.14, -90.2 -92.45" stroke="#e03131" stroke-width="2" fill="none"></path></g><g transform="translate(541.2995527710368 453.57079653413575) rotate(0 -45.10133804911786 -46.226911907831095)"><path d="M-79.92 -69.67 C-82.66 -75.75, -85.41 -81.83, -90.2 -92.45 M-79.92 -69.67 C-83.01 -76.53, -86.11 -83.38, -90.2 -92.45" stroke="#e03131" stroke-width="2" fill="none"></path></g></g><mask></mask><g stroke-linecap="round"><g transform="translate(527.4366355541819 450.9106885578419) rotate(0 -87.92555187760705 -26.69702774192922)"><path d="M0 0 C-29.31 -8.9, -146.54 -44.5, -175.85 -53.39 M0 0 C-29.31 -8.9, -146.54 -44.5, -175.85 -53.39" stroke="#e03131" stroke-width="2" fill="none"></path></g><g transform="translate(527.4366355541819 450.9106885578419) rotate(0 -87.92555187760705 -26.69702774192922)"><path d="M-150.89 -54.75 C-158.2 -54.35, -165.51 -53.96, -175.85 -53.39 M-150.89 -54.75 C-158.08 -54.36, -165.27 -53.97, -175.85 -53.39" stroke="#e03131" stroke-width="2" fill="none"></path></g><g transform="translate(527.4366355541819 450.9106885578419) rotate(0 -87.92555187760705 -26.69702774192922)"><path d="M-155.86 -38.39 C-161.71 -42.78, -167.57 -47.18, -175.85 -53.39 M-155.86 -38.39 C-161.62 -42.71, -167.38 -47.04, -175.85 -53.39" stroke="#e03131" stroke-width="2" fill="none"></path></g></g><mask></mask><g stroke-linecap="round"><g transform="translate(472.7370083183531 490.1545206133626) rotate(0 -78.43471881624603 10.41472367389315)"><path d="M0 0 C-26.14 3.47, -130.72 17.36, -156.87 20.83 M0 0 C-26.14 3.47, -130.72 17.36, -156.87 20.83" stroke="#e03131" stroke-width="2" fill="none"></path></g><g transform="translate(472.7370083183531 490.1545206133626) rotate(0 -78.43471881624603 10.41472367389315)"><path d="M-134.71 9.26 C-140.41 12.24, -146.11 15.21, -156.87 20.83 M-134.71 9.26 C-140.47 12.27, -146.24 15.28, -156.87 20.83" stroke="#e03131" stroke-width="2" fill="none"></path></g><g transform="translate(472.7370083183531 490.1545206133626) rotate(0 -78.43471881624603 10.41472367389315)"><path d="M-132.46 26.21 C-138.74 24.83, -145.02 23.44, -156.87 20.83 M-132.46 26.21 C-138.81 24.81, -145.16 23.41, -156.87 20.83" stroke="#e03131" stroke-width="2" fill="none"></path></g></g><mask></mask><g stroke-linecap="round" transform="translate(771.6748222864421 409.7560307518411) rotate(0 92.26683638316968 53.125)"><path d="M116.25 13.5 C132.45 23.22, 148.66 32.93, 161.28 40.5 M116.25 13.5 C132.21 23.07, 148.16 32.63, 161.28 40.5 M161.28 40.5 C184.53 54, 184.53 54, 161.28 67.5 M161.28 40.5 C184.53 54, 184.53 54, 161.28 67.5 M161.28 67.5 C143.52 77.46, 125.75 87.42, 116.25 92.75 M161.28 67.5 C148.95 74.42, 136.62 81.33, 116.25 92.75 M116.25 92.75 C93 106.25, 93 106.25, 69.75 92.75 M116.25 92.75 C93 106.25, 93 106.25, 69.75 92.75 M69.75 92.75 C60.32 87.63, 50.9 82.51, 23.25 67.5 M69.75 92.75 C57.1 85.88, 44.45 79.01, 23.25 67.5 M23.25 67.5 C0 54, 0 54, 23.25 40.5 M23.25 67.5 C0 54, 0 54, 23.25 40.5 M23.25 40.5 C38.47 31.66, 53.7 22.82, 69.75 13.5 M23.25 40.5 C41.37 29.98, 59.49 19.46, 69.75 13.5 M69.75 13.5 C93 0, 93 0, 116.25 13.5 M69.75 13.5 C93 0, 93 0, 116.25 13.5" stroke="#e03131" stroke-width="2" fill="none"></path></g><g transform="translate(830.9782615351559 445.3185307518411) rotate(0 32.829978942871094 17.5)"><text x="32.829978942871094" y="0" font-family="Virgil, Segoe UI Emoji" font-size="28px" fill="#e03131" text-anchor="middle" style="white-space: pre;" direction="ltr" dominant-baseline="text-before-edge">tiene</text></g><g stroke-linecap="round"><g transform="translate(673.520565475081 500.36641261534396) rotate(0 50.884759303926984 -21.182031994589806)"><path d="M0 0 C16.96 -7.06, 84.81 -35.3, 101.77 -42.36 M0 0 C16.96 -7.06, 84.81 -35.3, 101.77 -42.36" stroke="#e03131" stroke-width="2" fill="none"></path></g></g><mask></mask><g stroke-linecap="round"><g transform="translate(957.9323585345546 468.4209752767904) rotate(0 53.14682747654484 9.669672546300376)"><path d="M0 0 C17.72 3.22, 88.58 16.12, 106.29 19.34 M0 0 C17.72 3.22, 88.58 16.12, 106.29 19.34" stroke="#e03131" stroke-width="2" fill="none"></path></g></g><mask></mask><g transform="translate(1036.6337948902315 431.99264537012914) rotate(0 9.015998840332031 17.5)"><text x="0" y="0" font-family="Virgil, Segoe UI Emoji" font-size="28px" fill="#e03131" text-anchor="start" style="white-space: pre;" direction="ltr" dominant-baseline="text-before-edge">N</text></g><g transform="translate(671.2145260992243 455.80741115242427) rotate(0 9.015998840332031 17.5)"><text x="0" y="0" font-family="Virgil, Segoe UI Emoji" font-size="28px" fill="#e03131" text-anchor="start" style="white-space: pre;" direction="ltr" dominant-baseline="text-before-edge">N</text></g><g stroke-linecap="round" transform="translate(377.2787140769221 822.2730179243234) rotate(0 87.29166383309672 28.75)"><path d="M14.38 0 C61.08 0, 107.78 0, 160.21 0 M14.38 0 C72.41 0, 130.44 0, 160.21 0 M160.21 0 C169.79 0, 174.58 4.79, 174.58 14.38 M160.21 0 C169.79 0, 174.58 4.79, 174.58 14.38 M174.58 14.38 C174.58 25.5, 174.58 36.63, 174.58 43.13 M174.58 14.38 C174.58 22.23, 174.58 30.08, 174.58 43.13 M174.58 43.13 C174.58 52.71, 169.79 57.5, 160.21 57.5 M174.58 43.13 C174.58 52.71, 169.79 57.5, 160.21 57.5 M160.21 57.5 C129.66 57.5, 99.11 57.5, 14.38 57.5 M160.21 57.5 C111.41 57.5, 62.61 57.5, 14.38 57.5 M14.38 57.5 C4.79 57.5, 0 52.71, 0 43.13 M14.38 57.5 C4.79 57.5, 0 52.71, 0 43.13 M0 43.13 C0 32.06, 0 20.99, 0 14.38 M0 43.13 C0 33.16, 0 23.19, 0 14.38 M0 14.38 C0 4.79, 4.79 0, 14.38 0 M0 14.38 C0 4.79, 4.79 0, 14.38 0" stroke="#e03131" stroke-width="2" fill="none"></path></g><g transform="translate(392.82040842759693 833.5230179243234) rotate(0 71.74996948242188 17.5)"><text x="71.74996948242188" y="0" font-family="Virgil, Segoe UI Emoji" font-size="28px" fill="#e03131" text-anchor="middle" style="white-space: pre;" direction="ltr" dominant-baseline="text-before-edge">temporada</text></g><g stroke-linecap="round" transform="translate(662.4006902002916 709.4694763974746) rotate(0 64.0446877097269 32)"><path d="M128.09 32 C128.09 33.39, 127.91 34.8, 127.54 36.18 C127.18 37.56, 126.63 38.94, 125.91 40.28 C125.19 41.63, 124.28 42.96, 123.21 44.25 C122.15 45.53, 120.9 46.79, 119.51 48 C118.12 49.21, 116.55 50.38, 114.85 51.48 C113.16 52.58, 111.3 53.64, 109.33 54.63 C107.36 55.61, 105.24 56.54, 103.03 57.39 C100.82 58.23, 98.48 59.02, 96.07 59.71 C93.65 60.41, 91.13 61.03, 88.55 61.56 C85.98 62.1, 83.31 62.55, 80.62 62.91 C77.93 63.27, 75.17 63.54, 72.4 63.73 C69.64 63.91, 66.83 64, 64.04 64 C61.26 64, 58.45 63.91, 55.69 63.73 C52.92 63.54, 50.16 63.27, 47.47 62.91 C44.78 62.55, 42.11 62.1, 39.54 61.56 C36.96 61.03, 34.44 60.41, 32.02 59.71 C29.61 59.02, 27.27 58.23, 25.06 57.39 C22.85 56.54, 20.73 55.61, 18.76 54.63 C16.79 53.64, 14.93 52.58, 13.23 51.48 C11.54 50.38, 9.97 49.21, 8.58 48 C7.19 46.79, 5.94 45.53, 4.88 44.25 C3.81 42.96, 2.9 41.63, 2.18 40.28 C1.46 38.94, 0.91 37.56, 0.55 36.18 C0.18 34.8, 0 33.39, 0 32 C0 30.61, 0.18 29.2, 0.55 27.82 C0.91 26.44, 1.46 25.06, 2.18 23.72 C2.9 22.37, 3.81 21.04, 4.88 19.75 C5.94 18.47, 7.19 17.21, 8.58 16 C9.97 14.79, 11.54 13.62, 13.23 12.52 C14.93 11.42, 16.79 10.36, 18.76 9.37 C20.73 8.39, 22.85 7.46, 25.06 6.61 C27.27 5.77, 29.61 4.98, 32.02 4.29 C34.44 3.59, 36.96 2.97, 39.54 2.44 C42.11 1.9, 44.78 1.45, 47.47 1.09 C50.16 0.73, 52.92 0.46, 55.69 0.27 C58.45 0.09, 61.26 0, 64.04 0 C66.83 0, 69.64 0.09, 72.4 0.27 C75.17 0.46, 77.93 0.73, 80.62 1.09 C83.31 1.45, 85.98 1.9, 88.55 2.44 C91.13 2.97, 93.65 3.59, 96.07 4.29 C98.48 4.98, 100.82 5.77, 103.03 6.61 C105.24 7.46, 107.36 8.39, 109.33 9.37 C111.3 10.36, 113.16 11.42, 114.85 12.52 C116.55 13.62, 118.12 14.79, 119.51 16 C120.9 17.21, 122.15 18.47, 123.21 19.75 C124.28 21.04, 125.19 22.37, 125.91 23.72 C126.63 25.06, 127.18 26.44, 127.54 27.82 C127.91 29.2, 128 31.3, 128.09 32 C128.18 32.7, 128.18 31.3, 128.09 32" stroke="#e03131" stroke-width="2" fill="none"></path></g><g transform="translate(715.6269548802263 723.8420593995052) rotate(0 11.031990051269531 17.5)"><text x="11.031990051269531" y="0" font-family="Virgil, Segoe UI Emoji" font-size="28px" fill="#e03131" text-anchor="middle" style="white-space: pre;" direction="ltr" dominant-baseline="text-before-edge">id</text></g><g stroke-linecap="round" transform="translate(683.7500000000002 789.9694763974748) rotate(0 63.320377910018436 32)"><path d="M126.64 32 C126.64 33.39, 126.46 34.8, 126.1 36.18 C125.74 37.56, 125.2 38.94, 124.48 40.28 C123.77 41.63, 122.88 42.96, 121.82 44.25 C120.77 45.53, 119.53 46.79, 118.16 48 C116.78 49.21, 115.23 50.38, 113.56 51.48 C111.88 52.58, 110.04 53.64, 108.09 54.63 C106.15 55.61, 104.05 56.54, 101.87 57.39 C99.68 58.23, 97.37 59.02, 94.98 59.71 C92.59 60.41, 90.1 61.03, 87.55 61.56 C85.01 62.1, 82.37 62.55, 79.71 62.91 C77.05 63.27, 74.32 63.54, 71.59 63.73 C68.85 63.91, 66.08 64, 63.32 64 C60.57 64, 57.79 63.91, 55.06 63.73 C52.32 63.54, 49.59 63.27, 46.93 62.91 C44.27 62.55, 41.63 62.1, 39.09 61.56 C36.54 61.03, 34.05 60.41, 31.66 59.71 C29.27 59.02, 26.96 58.23, 24.77 57.39 C22.59 56.54, 20.49 55.61, 18.55 54.63 C16.6 53.64, 14.76 52.58, 13.08 51.48 C11.41 50.38, 9.86 49.21, 8.48 48 C7.11 46.79, 5.87 45.53, 4.82 44.25 C3.77 42.96, 2.87 41.63, 2.16 40.28 C1.44 38.94, 0.9 37.56, 0.54 36.18 C0.18 34.8, 0 33.39, 0 32 C0 30.61, 0.18 29.2, 0.54 27.82 C0.9 26.44, 1.44 25.06, 2.16 23.72 C2.87 22.37, 3.77 21.04, 4.82 19.75 C5.87 18.47, 7.11 17.21, 8.48 16 C9.86 14.79, 11.41 13.62, 13.08 12.52 C14.76 11.42, 16.6 10.36, 18.55 9.37 C20.49 8.39, 22.59 7.46, 24.77 6.61 C26.96 5.77, 29.27 4.98, 31.66 4.29 C34.05 3.59, 36.54 2.97, 39.09 2.44 C41.63 1.9, 44.27 1.45, 46.93 1.09 C49.59 0.73, 52.32 0.46, 55.06 0.27 C57.79 0.09, 60.57 0, 63.32 0 C66.08 0, 68.85 0.09, 71.59 0.27 C74.32 0.46, 77.05 0.73, 79.71 1.09 C82.37 1.45, 85.01 1.9, 87.55 2.44 C90.1 2.97, 92.59 3.59, 94.98 4.29 C97.37 4.98, 99.68 5.77, 101.87 6.61 C104.05 7.46, 106.15 8.39, 108.09 9.37 C110.04 10.36, 111.88 11.42, 113.56 12.52 C115.23 13.62, 116.78 14.79, 118.16 16 C119.53 17.21, 120.77 18.47, 121.82 19.75 C122.88 21.04, 123.77 22.37, 124.48 23.72 C125.2 25.06, 125.74 26.44, 126.1 27.82 C126.46 29.2, 126.55 31.3, 126.64 32 C126.73 32.7, 126.73 31.3, 126.64 32" stroke="#e03131" stroke-width="2" fill="none"></path></g><g transform="translate(709.0201312141708 804.3420593995053) rotate(0 38.275978088378906 17.5)"><text x="38.275978088378906" y="0" font-family="Virgil, Segoe UI Emoji" font-size="28px" fill="#e03131" text-anchor="middle" style="white-space: pre;" direction="ltr" dominant-baseline="text-before-edge">titulo</text></g><g stroke-linecap="round"><g transform="translate(563.2940591936695 825.3748754693779) rotate(0 45.918063895893454 -43.781872744149155)"><path d="M0 0 C15.31 -14.59, 76.53 -72.97, 91.84 -87.56 M0 0 C15.31 -14.59, 76.53 -72.97, 91.84 -87.56" stroke="#e03131" stroke-width="2" fill="none"></path></g><g transform="translate(563.2940591936695 825.3748754693779) rotate(0 45.918063895893454 -43.781872744149155)"><path d="M91.84 -87.56 L86.37 -73.59 L77.62 -82.77 L91.84 -87.56" stroke="none" stroke-width="0" fill="#e03131" fill-rule="evenodd"></path><path d="M91.84 -87.56 C90.74 -84.76, 89.64 -81.96, 86.37 -73.59 M91.84 -87.56 C90.27 -83.57, 88.71 -79.57, 86.37 -73.59 M86.37 -73.59 C83.75 -76.35, 81.12 -79.1, 77.62 -82.77 M86.37 -73.59 C83.35 -76.76, 80.33 -79.93, 77.62 -82.77 M77.62 -82.77 C80.5 -83.74, 83.38 -84.71, 91.84 -87.56 M77.62 -82.77 C81.49 -84.07, 85.36 -85.38, 91.84 -87.56 M91.84 -87.56 C91.84 -87.56, 91.84 -87.56, 91.84 -87.56 M91.84 -87.56 C91.84 -87.56, 91.84 -87.56, 91.84 -87.56" stroke="#e03131" stroke-width="2" fill="none"></path></g></g><mask></mask><g stroke-linecap="round"><g transform="translate(560.8203779100191 844.3321116520069) rotate(0 57.14164338664436 -8.476634340890314)"><path d="M0 0 C19.05 -2.83, 95.24 -14.13, 114.28 -16.95 M0 0 C19.05 -2.83, 95.24 -14.13, 114.28 -16.95" stroke="#e03131" stroke-width="2" fill="none"></path></g><g transform="translate(560.8203779100191 844.3321116520069) rotate(0 57.14164338664436 -8.476634340890314)"><path d="M114.28 -16.95 L101.77 -8.69 L99.91 -21.23 L114.28 -16.95" stroke="none" stroke-width="0" fill="#e03131" fill-rule="evenodd"></path><path d="M114.28 -16.95 C110.46 -14.43, 106.63 -11.9, 101.77 -8.69 M114.28 -16.95 C110.73 -14.6, 107.17 -12.25, 101.77 -8.69 M101.77 -8.69 C101.05 -13.54, 100.33 -18.4, 99.91 -21.23 M101.77 -8.69 C101.26 -12.11, 100.75 -15.54, 99.91 -21.23 M99.91 -21.23 C103.03 -20.3, 106.15 -19.37, 114.28 -16.95 M99.91 -21.23 C104.36 -19.9, 108.81 -18.58, 114.28 -16.95 M114.28 -16.95 C114.28 -16.95, 114.28 -16.95, 114.28 -16.95 M114.28 -16.95 C114.28 -16.95, 114.28 -16.95, 114.28 -16.95" stroke="#e03131" stroke-width="2" fill="none"></path></g></g><mask></mask><g stroke-linecap="round" transform="translate(698.7500000000002 859.4694763974746) rotate(0 63.320377910018436 32)"><path d="M126.64 32 C126.64 33.39, 126.46 34.8, 126.1 36.18 C125.74 37.56, 125.2 38.94, 124.48 40.28 C123.77 41.63, 122.88 42.96, 121.82 44.25 C120.77 45.53, 119.53 46.79, 118.16 48 C116.78 49.21, 115.23 50.38, 113.56 51.48 C111.88 52.58, 110.04 53.64, 108.09 54.63 C106.15 55.61, 104.05 56.54, 101.87 57.39 C99.68 58.23, 97.37 59.02, 94.98 59.71 C92.59 60.41, 90.1 61.03, 87.55 61.56 C85.01 62.1, 82.37 62.55, 79.71 62.91 C77.05 63.27, 74.32 63.54, 71.59 63.73 C68.85 63.91, 66.08 64, 63.32 64 C60.57 64, 57.79 63.91, 55.06 63.73 C52.32 63.54, 49.59 63.27, 46.93 62.91 C44.27 62.55, 41.63 62.1, 39.09 61.56 C36.54 61.03, 34.05 60.41, 31.66 59.71 C29.27 59.02, 26.96 58.23, 24.77 57.39 C22.59 56.54, 20.49 55.61, 18.55 54.63 C16.6 53.64, 14.76 52.58, 13.08 51.48 C11.41 50.38, 9.86 49.21, 8.48 48 C7.11 46.79, 5.87 45.53, 4.82 44.25 C3.77 42.96, 2.87 41.63, 2.16 40.28 C1.44 38.94, 0.9 37.56, 0.54 36.18 C0.18 34.8, 0 33.39, 0 32 C0 30.61, 0.18 29.2, 0.54 27.82 C0.9 26.44, 1.44 25.06, 2.16 23.72 C2.87 22.37, 3.77 21.04, 4.82 19.75 C5.87 18.47, 7.11 17.21, 8.48 16 C9.86 14.79, 11.41 13.62, 13.08 12.52 C14.76 11.42, 16.6 10.36, 18.55 9.37 C20.49 8.39, 22.59 7.46, 24.77 6.61 C26.96 5.77, 29.27 4.98, 31.66 4.29 C34.05 3.59, 36.54 2.97, 39.09 2.44 C41.63 1.9, 44.27 1.45, 46.93 1.09 C49.59 0.73, 52.32 0.46, 55.06 0.27 C57.79 0.09, 60.57 0, 63.32 0 C66.08 0, 68.85 0.09, 71.59 0.27 C74.32 0.46, 77.05 0.73, 79.71 1.09 C82.37 1.45, 85.01 1.9, 87.55 2.44 C90.1 2.97, 92.59 3.59, 94.98 4.29 C97.37 4.98, 99.68 5.77, 101.87 6.61 C104.05 7.46, 106.15 8.39, 108.09 9.37 C110.04 10.36, 111.88 11.42, 113.56 12.52 C115.23 13.62, 116.78 14.79, 118.16 16 C119.53 17.21, 120.77 18.47, 121.82 19.75 C122.88 21.04, 123.77 22.37, 124.48 23.72 C125.2 25.06, 125.74 26.44, 126.1 27.82 C126.46 29.2, 126.55 31.3, 126.64 32 C126.73 32.7, 126.73 31.3, 126.64 32" stroke="#e03131" stroke-width="2" fill="none"></path></g><g transform="translate(731.2301302986435 873.8420593995052) rotate(0 31.06597900390625 17.5)"><text x="31.06597900390625" y="0" font-family="Virgil, Segoe UI Emoji" font-size="28px" fill="#e03131" text-anchor="middle" style="white-space: pre;" direction="ltr" dominant-baseline="text-before-edge">path</text></g><g stroke-linecap="round"><g transform="translate(563.5580177143561 862.4800974762013) rotate(0 63.38751440526582 13.067438745802235)"><path d="M0 0 C21.13 4.36, 105.65 21.78, 126.78 26.13 M0 0 C21.13 4.36, 105.65 21.78, 126.78 26.13" stroke="#e03131" stroke-width="2" fill="none"></path></g><g transform="translate(563.5580177143561 862.4800974762013) rotate(0 63.38751440526582 13.067438745802235)"><path d="M126.78 26.13 L112.18 29.6 L114.74 17.18 L126.78 26.13" stroke="none" stroke-width="0" fill="#e03131" fill-rule="evenodd"></path><path d="M126.78 26.13 C121.02 27.5, 115.26 28.87, 112.18 29.6 M126.78 26.13 C122.78 27.08, 118.78 28.03, 112.18 29.6 M112.18 29.6 C113.17 24.78, 114.17 19.95, 114.74 17.18 M112.18 29.6 C113.03 25.49, 113.87 21.38, 114.74 17.18 M114.74 17.18 C119.1 20.42, 123.46 23.67, 126.78 26.13 M114.74 17.18 C118.01 19.61, 121.27 22.04, 126.78 26.13 M126.78 26.13 C126.78 26.13, 126.78 26.13, 126.78 26.13 M126.78 26.13 C126.78 26.13, 126.78 26.13, 126.78 26.13" stroke="#e03131" stroke-width="2" fill="none"></path></g></g><mask></mask><g stroke-linecap="round" transform="translate(504.8035415268488 607.5342421797695) rotate(0 92.26683638316968 45)"><path d="M116.25 11.5 C129.45 18.24, 142.64 24.98, 161.28 34.5 M116.25 11.5 C126.48 16.72, 136.71 21.95, 161.28 34.5 M161.28 34.5 C184.53 46, 184.53 46, 161.28 57.5 M161.28 34.5 C184.53 46, 184.53 46, 161.28 57.5 M161.28 57.5 C151.5 62.06, 141.71 66.63, 116.25 78.5 M161.28 57.5 C147.34 64, 133.39 70.51, 116.25 78.5 M116.25 78.5 C93 90, 93 90, 69.75 78.5 M116.25 78.5 C93 90, 93 90, 69.75 78.5 M69.75 78.5 C51.38 70.2, 33 61.91, 23.25 57.5 M69.75 78.5 C57.91 73.15, 46.08 67.81, 23.25 57.5 M23.25 57.5 C0 46, 0 46, 23.25 34.5 M23.25 57.5 C0 46, 0 46, 23.25 34.5 M23.25 34.5 C38.72 26.85, 54.19 19.19, 69.75 11.5 M23.25 34.5 C38.44 26.99, 53.63 19.47, 69.75 11.5 M69.75 11.5 C93 0, 93 0, 116.25 11.5 M69.75 11.5 C93 0, 93 0, 116.25 11.5" stroke="#e03131" stroke-width="2" fill="none"></path></g><g transform="translate(564.1069807755625 635.0342421797695) rotate(0 32.829978942871094 17.5)"><text x="32.829978942871094" y="0" font-family="Virgil, Segoe UI Emoji" font-size="28px" fill="#e03131" text-anchor="middle" style="white-space: pre;" direction="ltr" dominant-baseline="text-before-edge">tiene</text></g><g stroke-linecap="round"><g transform="translate(549.7292697805622 686.2692975529344) rotate(0 -32.55801560865365 63.10008942227006)"><path d="M0 0 C-10.85 21.03, -54.26 105.17, -65.12 126.2 M0 0 C-10.85 21.03, -54.26 105.17, -65.12 126.2" stroke="#e03131" stroke-width="2" fill="none"></path></g></g><mask></mask><g stroke-linecap="round"><g transform="translate(600.6354333393012 531.1666646950403) rotate(0 -3.473987931869601 30.36464797540475)"><path d="M0 0 C-1.16 10.12, -5.79 50.61, -6.95 60.73 M0 0 C-1.16 10.12, -5.79 50.61, -6.95 60.73" stroke="#e03131" stroke-width="2" fill="none"></path></g></g><mask></mask><g transform="translate(626.8043790696864 537.4694763974744) rotate(0 3.7939987182617188 17.5)"><text x="0" y="0" font-family="Virgil, Segoe UI Emoji" font-size="28px" fill="#e03131" text-anchor="start" style="white-space: pre;" direction="ltr" dominant-baseline="text-before-edge">1</text></g><g transform="translate(468.05437906968643 776.2194763974745) rotate(0 9.015998840332031 17.5)"><text x="0" y="0" font-family="Virgil, Segoe UI Emoji" font-size="28px" fill="#e03131" text-anchor="start" style="white-space: pre;" direction="ltr" dominant-baseline="text-before-edge">N</text></g><g stroke-linecap="round" transform="translate(701.2500000000001 932.4694763974746) rotate(0 80.82037791001846 32)"><path d="M161.64 32 C161.64 33.29, 161.44 34.58, 161.05 35.86 C160.66 37.13, 160.07 38.41, 159.29 39.66 C158.52 40.91, 157.54 42.15, 156.39 43.35 C155.24 44.55, 153.89 45.73, 152.38 46.87 C150.87 48.01, 149.18 49.12, 147.33 50.18 C145.49 51.24, 143.47 52.26, 141.32 53.22 C139.16 54.18, 136.84 55.1, 134.41 55.95 C131.98 56.8, 129.4 57.61, 126.73 58.34 C124.06 59.07, 121.25 59.74, 118.38 60.33 C115.5 60.93, 112.52 61.46, 109.48 61.92 C106.44 62.38, 103.31 62.76, 100.16 63.07 C97.01 63.38, 93.79 63.61, 90.56 63.77 C87.34 63.92, 84.07 64, 80.82 64 C77.57 64, 74.3 63.92, 71.08 63.77 C67.85 63.61, 64.63 63.38, 61.48 63.07 C58.33 62.76, 55.2 62.38, 52.16 61.92 C49.12 61.46, 46.14 60.93, 43.26 60.33 C40.39 59.74, 37.58 59.07, 34.91 58.34 C32.24 57.61, 29.66 56.8, 27.23 55.95 C24.8 55.1, 22.48 54.18, 20.33 53.22 C18.17 52.26, 16.15 51.24, 14.31 50.18 C12.46 49.12, 10.77 48.01, 9.26 46.87 C7.75 45.73, 6.4 44.55, 5.25 43.35 C4.1 42.15, 3.13 40.91, 2.35 39.66 C1.57 38.41, 0.98 37.13, 0.59 35.86 C0.2 34.58, 0 33.29, 0 32 C0 30.71, 0.2 29.42, 0.59 28.14 C0.98 26.87, 1.57 25.59, 2.35 24.34 C3.13 23.09, 4.1 21.85, 5.25 20.65 C6.4 19.45, 7.75 18.27, 9.26 17.13 C10.77 15.99, 12.46 14.88, 14.31 13.82 C16.15 12.76, 18.17 11.74, 20.33 10.78 C22.48 9.82, 24.8 8.9, 27.23 8.05 C29.66 7.2, 32.24 6.39, 34.91 5.66 C37.58 4.93, 40.39 4.26, 43.26 3.67 C46.14 3.07, 49.12 2.54, 52.16 2.08 C55.2 1.62, 58.33 1.24, 61.48 0.93 C64.63 0.62, 67.85 0.39, 71.08 0.23 C74.3 0.08, 77.57 0, 80.82 0 C84.07 0, 87.34 0.08, 90.56 0.23 C93.79 0.39, 97.01 0.62, 100.16 0.93 C103.31 1.24, 106.44 1.62, 109.48 2.08 C112.52 2.54, 115.5 3.07, 118.38 3.67 C121.25 4.26, 124.06 4.93, 126.73 5.66 C129.4 6.39, 131.98 7.2, 134.41 8.05 C136.84 8.9, 139.16 9.82, 141.32 10.78 C143.47 11.74, 145.49 12.76, 147.33 13.82 C149.18 14.88, 150.87 15.99, 152.38 17.13 C153.89 18.27, 155.24 19.45, 156.39 20.65 C157.54 21.85, 158.52 23.09, 159.29 24.34 C160.07 25.59, 160.66 26.87, 161.05 28.14 C161.44 29.42, 161.64 30.71, 161.64 32" stroke="#e03131" stroke-width="2" fill="none"></path></g><g transform="translate(741.8677626654764 946.8420593995052) rotate(0 40.053977966308594 17.5)"><text x="40.053977966308594" y="0" font-family="Virgil, Segoe UI Emoji" font-size="28px" fill="#e03131" text-anchor="middle" style="white-space: pre;" direction="ltr" dominant-baseline="text-before-edge">idioma</text></g><g stroke-linecap="round"><g transform="translate(559.3922137890224 884.7668664561088) rotate(0 66.02751613872545 40.86313306879907)"><path d="M0 0 C22.01 13.62, 110.05 68.11, 132.06 81.73 M0 0 C22.01 13.62, 110.05 68.11, 132.06 81.73" stroke="#e03131" stroke-width="2" fill="none"></path></g><g transform="translate(559.3922137890224 884.7668664561088) rotate(0 66.02751613872545 40.86313306879907)"><path d="M132.06 81.73 L117.16 79.96 L123.83 69.18 L132.06 81.73" stroke="none" stroke-width="0" fill="#e03131" fill-rule="evenodd"></path><path d="M132.06 81.73 C126.27 81.04, 120.48 80.36, 117.16 79.96 M132.06 81.73 C127.13 81.14, 122.2 80.56, 117.16 79.96 M117.16 79.96 C119.58 76.06, 121.99 72.15, 123.83 69.18 M117.16 79.96 C118.97 77.04, 120.78 74.11, 123.83 69.18 M123.83 69.18 C126.18 72.76, 128.52 76.34, 132.06 81.73 M123.83 69.18 C126.52 73.28, 129.21 77.38, 132.06 81.73 M132.06 81.73 C132.06 81.73, 132.06 81.73, 132.06 81.73 M132.06 81.73 C132.06 81.73, 132.06 81.73, 132.06 81.73" stroke="#e03131" stroke-width="2" fill="none"></path></g></g><mask></mask><g stroke-linecap="round" transform="translate(10 596.5944763974744) rotate(0 187.69537791001844 35.5)"><path d="M375.39 35.5 C375.39 36.48, 375.18 37.46, 374.75 38.43 C374.32 39.41, 373.68 40.38, 372.83 41.34 C371.98 42.31, 370.92 43.27, 369.65 44.21 C368.38 45.16, 366.9 46.1, 365.22 47.03 C363.54 47.95, 361.66 48.87, 359.58 49.76 C357.51 50.66, 355.23 51.54, 352.77 52.4 C350.31 53.26, 347.65 54.1, 344.83 54.92 C342 55.73, 338.99 56.53, 335.81 57.3 C332.64 58.08, 329.29 58.82, 325.79 59.54 C322.29 60.26, 318.62 60.96, 314.82 61.62 C311.02 62.28, 307.06 62.91, 302.98 63.51 C298.9 64.11, 294.68 64.68, 290.36 65.22 C286.03 65.75, 281.57 66.26, 277.03 66.72 C272.48 67.19, 267.82 67.62, 263.09 68.01 C258.36 68.4, 253.53 68.76, 248.64 69.08 C243.75 69.39, 238.78 69.67, 233.77 69.91 C228.76 70.15, 223.69 70.35, 218.59 70.52 C213.49 70.68, 208.34 70.8, 203.2 70.88 C198.05 70.96, 192.86 71, 187.7 71 C182.53 71, 177.34 70.96, 172.2 70.88 C167.05 70.8, 161.9 70.68, 156.8 70.52 C151.71 70.35, 146.63 70.15, 141.62 69.91 C136.61 69.67, 131.64 69.39, 126.75 69.08 C121.86 68.76, 117.03 68.4, 112.3 68.01 C107.57 67.62, 102.91 67.19, 98.36 66.72 C93.82 66.26, 89.36 65.75, 85.04 65.22 C80.71 64.68, 76.49 64.11, 72.41 63.51 C68.33 62.91, 64.37 62.28, 60.57 61.62 C56.77 60.96, 53.1 60.26, 49.6 59.54 C46.1 58.82, 42.75 58.08, 39.58 57.3 C36.4 56.53, 33.39 55.73, 30.56 54.92 C27.74 54.1, 25.08 53.26, 22.62 52.4 C20.16 51.54, 17.88 50.66, 15.81 49.76 C13.73 48.87, 11.85 47.95, 10.17 47.03 C8.49 46.1, 7.01 45.16, 5.74 44.21 C4.48 43.27, 3.41 42.31, 2.56 41.34 C1.71 40.38, 1.07 39.41, 0.64 38.43 C0.21 37.46, 0 36.48, 0 35.5 C0 34.52, 0.21 33.54, 0.64 32.57 C1.07 31.59, 1.71 30.62, 2.56 29.66 C3.41 28.69, 4.48 27.73, 5.74 26.79 C7.01 25.84, 8.49 24.9, 10.17 23.97 C11.85 23.05, 13.73 22.13, 15.81 21.24 C17.88 20.34, 20.16 19.46, 22.62 18.6 C25.08 17.74, 27.74 16.9, 30.56 16.08 C33.39 15.27, 36.4 14.47, 39.58 13.7 C42.75 12.92, 46.1 12.18, 49.6 11.46 C53.1 10.74, 56.77 10.04, 60.57 9.38 C64.37 8.72, 68.33 8.09, 72.41 7.49 C76.49 6.89, 80.71 6.32, 85.04 5.78 C89.36 5.25, 93.82 4.74, 98.36 4.28 C102.91 3.81, 107.57 3.38, 112.3 2.99 C117.03 2.6, 121.86 2.24, 126.75 1.92 C131.64 1.61, 136.61 1.33, 141.62 1.09 C146.63 0.85, 151.71 0.65, 156.8 0.48 C161.9 0.32, 167.05 0.2, 172.2 0.12 C177.34 0.04, 182.53 0, 187.7 0 C192.86 0, 198.05 0.04, 203.2 0.12 C208.34 0.2, 213.49 0.32, 218.59 0.48 C223.69 0.65, 228.76 0.85, 233.77 1.09 C238.78 1.33, 243.75 1.61, 248.64 1.92 C253.53 2.24, 258.36 2.6, 263.09 2.99 C267.82 3.38, 272.48 3.81, 277.03 4.28 C281.57 4.74, 286.03 5.25, 290.36 5.78 C294.68 6.32, 298.9 6.89, 302.98 7.49 C307.06 8.09, 311.02 8.72, 314.82 9.38 C318.62 10.04, 322.29 10.74, 325.79 11.46 C329.29 12.18, 332.64 12.92, 335.81 13.7 C338.99 14.47, 342 15.27, 344.83 16.08 C347.65 16.9, 350.31 17.74, 352.77 18.6 C355.23 19.46, 357.51 20.34, 359.58 21.24 C361.66 22.13, 363.54 23.05, 365.22 23.97 C366.9 24.9, 368.38 25.84, 369.65 26.79 C370.92 27.73, 371.98 28.69, 372.83 29.66 C373.68 30.62, 374.32 31.59, 374.75 32.57 C375.18 33.54, 375.39 34.52, 375.39 35.5" stroke="#e03131" stroke-width="2" fill="none"></path></g><g transform="translate(75.74475344130082 614.4921856653518) rotate(0 121.72994995117188 17.5)"><text x="121.72994995117188" y="0" font-family="Virgil, Segoe UI Emoji" font-size="28px" fill="#e03131" text-anchor="middle" style="white-space: pre;" direction="ltr" dominant-baseline="text-before-edge">cant_temporadas</text></g><g stroke-linecap="round"><g transform="translate(496.68794817985577 524.9694763974744) rotate(0 -54.08136482791636 48.700639854544534)"><path d="M0 0 C-18.03 16.23, -90.14 81.17, -108.16 97.4 M0 0 C-18.03 16.23, -90.14 81.17, -108.16 97.4" stroke="#e03131" stroke-width="2" fill="none"></path></g><g transform="translate(496.68794817985577 524.9694763974744) rotate(0 -54.08136482791636 48.700639854544534)"><path d="M-108.16 97.4 L-102.3 83.59 L-93.82 93.01 L-108.16 97.4" stroke="none" stroke-width="0" fill="#e03131" fill-rule="evenodd"></path><path d="M-108.16 97.4 C-106.34 93.11, -104.52 88.82, -102.3 83.59 M-108.16 97.4 C-106.68 93.91, -105.2 90.42, -102.3 83.59 M-102.3 83.59 C-100.53 85.57, -98.75 87.54, -93.82 93.01 M-102.3 83.59 C-99.46 86.75, -96.62 89.9, -93.82 93.01 M-93.82 93.01 C-99.49 94.75, -105.15 96.48, -108.16 97.4 M-93.82 93.01 C-97.47 94.13, -101.12 95.25, -108.16 97.4 M-108.16 97.4 C-108.16 97.4, -108.16 97.4, -108.16 97.4 M-108.16 97.4 C-108.16 97.4, -108.16 97.4, -108.16 97.4" stroke="#e03131" stroke-width="2" fill="none"></path></g></g><mask></mask><g stroke-linecap="round" transform="translate(138.62802387663032 421.9694763974742) rotate(0 107.19235403338826 32)"><path d="M214.38 32 C214.38 33.11, 214.19 34.24, 213.8 35.34 C213.41 36.45, 212.82 37.56, 212.04 38.65 C211.27 39.74, 210.29 40.83, 209.14 41.89 C207.98 42.95, 206.64 44, 205.12 45.02 C203.6 46.03, 201.89 47.03, 200.02 48 C198.16 48.97, 196.11 49.91, 193.91 50.81 C191.72 51.71, 189.35 52.58, 186.85 53.41 C184.35 54.24, 181.69 55.03, 178.92 55.78 C176.14 56.53, 173.22 57.23, 170.2 57.89 C167.18 58.54, 164.02 59.16, 160.79 59.71 C157.55 60.27, 154.2 60.78, 150.79 61.23 C147.38 61.69, 143.87 62.09, 140.32 62.43 C136.76 62.78, 133.13 63.07, 129.48 63.3 C125.83 63.53, 122.11 63.71, 118.4 63.82 C114.68 63.94, 110.93 64, 107.19 64 C103.46 64, 99.7 63.94, 95.99 63.82 C92.27 63.71, 88.56 63.53, 84.91 63.3 C81.25 63.07, 77.62 62.78, 74.07 62.43 C70.52 62.09, 67.01 61.69, 63.59 61.23 C60.18 60.78, 56.83 60.27, 53.6 59.71 C50.36 59.16, 47.21 58.54, 44.19 57.89 C41.16 57.23, 38.24 56.53, 35.47 55.78 C32.69 55.03, 30.03 54.24, 27.53 53.41 C25.03 52.58, 22.67 51.71, 20.47 50.81 C18.28 49.91, 16.23 48.97, 14.36 48 C12.49 47.03, 10.79 46.03, 9.27 45.02 C7.75 44, 6.4 42.95, 5.25 41.89 C4.09 40.83, 3.12 39.74, 2.34 38.65 C1.57 37.56, 0.98 36.45, 0.59 35.34 C0.2 34.24, 0 33.11, 0 32 C0 30.89, 0.2 29.76, 0.59 28.66 C0.98 27.55, 1.57 26.44, 2.34 25.35 C3.12 24.26, 4.09 23.17, 5.25 22.11 C6.4 21.05, 7.75 20, 9.27 18.98 C10.79 17.97, 12.49 16.97, 14.36 16 C16.23 15.03, 18.28 14.09, 20.47 13.19 C22.67 12.29, 25.03 11.42, 27.53 10.59 C30.03 9.76, 32.69 8.97, 35.47 8.22 C38.24 7.47, 41.16 6.77, 44.19 6.11 C47.21 5.46, 50.36 4.84, 53.6 4.29 C56.83 3.73, 60.18 3.22, 63.59 2.77 C67.01 2.31, 70.52 1.91, 74.07 1.57 C77.62 1.22, 81.25 0.93, 84.91 0.7 C88.56 0.47, 92.27 0.29, 95.99 0.18 C99.7 0.06, 103.46 0, 107.19 0 C110.93 0, 114.68 0.06, 118.4 0.18 C122.11 0.29, 125.83 0.47, 129.48 0.7 C133.13 0.93, 136.76 1.22, 140.32 1.57 C143.87 1.91, 147.38 2.31, 150.79 2.77 C154.2 3.22, 157.55 3.73, 160.79 4.29 C164.02 4.84, 167.18 5.46, 170.2 6.11 C173.22 6.77, 176.14 7.47, 178.92 8.22 C181.69 8.97, 184.35 9.76, 186.85 10.59 C189.35 11.42, 191.72 12.29, 193.91 13.19 C196.11 14.09, 198.16 15.03, 200.02 16 C201.89 16.97, 203.6 17.97, 205.12 18.98 C206.64 20, 207.98 21.05, 209.14 22.11 C210.29 23.17, 211.27 24.26, 212.04 25.35 C212.82 26.44, 213.41 27.55, 213.8 28.66 C214.19 29.76, 214.29 31.44, 214.38 32 C214.48 32.56, 214.48 31.44, 214.38 32" stroke="#e03131" stroke-width="2" fill="none"></path></g><g transform="translate(202.17596079709026 436.3420593995047) rotate(0 43.84797668457031 17.5)"><text x="43.84797668457031" y="0" font-family="Virgil, Segoe UI Emoji" font-size="28px" fill="#e03131" text-anchor="middle" style="white-space: pre;" direction="ltr" dominant-baseline="text-before-edge">poster</text></g><g stroke-linecap="round"><g transform="translate(479.5703779100186 464.4163445739132) rotate(0 -58.17228491628534 -6.233621798353397)"><path d="M0 0 C-19.39 -2.08, -96.95 -10.39, -116.34 -12.47 M0 0 C-19.39 -2.08, -96.95 -10.39, -116.34 -12.47" stroke="#e03131" stroke-width="2" fill="none"></path></g><g transform="translate(479.5703779100186 464.4163445739132) rotate(0 -58.17228491628534 -6.233621798353397)"><path d="M-116.34 -12.47 L-102.15 -17.32 L-103.5 -4.72 L-116.34 -12.47" stroke="none" stroke-width="0" fill="#e03131" fill-rule="evenodd"></path><path d="M-116.34 -12.47 C-113.47 -13.45, -110.59 -14.44, -102.15 -17.32 M-116.34 -12.47 C-112.48 -13.79, -108.62 -15.11, -102.15 -17.32 M-102.15 -17.32 C-102.6 -13.15, -103.05 -8.97, -103.5 -4.72 M-102.15 -17.32 C-102.47 -14.37, -102.78 -11.42, -103.5 -4.72 M-103.5 -4.72 C-106.12 -6.3, -108.74 -7.87, -116.34 -12.47 M-103.5 -4.72 C-107.68 -7.24, -111.85 -9.76, -116.34 -12.47 M-116.34 -12.47 C-116.34 -12.47, -116.34 -12.47, -116.34 -12.47 M-116.34 -12.47 C-116.34 -12.47, -116.34 -12.47, -116.34 -12.47" stroke="#e03131" stroke-width="2" fill="none"></path></g></g><mask></mask><g stroke-linecap="round" transform="translate(117.50000000000011 687.8444763974744) rotate(0 127.07037791001844 34.24999999999994)"><path d="M254.14 34.25 C254.14 35.37, 253.94 36.49, 253.53 37.61 C253.12 38.72, 252.51 39.83, 251.7 40.93 C250.89 42.03, 249.87 43.12, 248.67 44.19 C247.46 45.26, 246.06 46.32, 244.47 47.36 C242.88 48.39, 241.09 49.41, 239.14 50.4 C237.18 51.38, 235.03 52.35, 232.73 53.28 C230.42 54.21, 227.93 55.11, 225.3 55.98 C222.66 56.84, 219.86 57.68, 216.92 58.47 C213.99 59.26, 210.89 60.02, 207.68 60.73 C204.47 61.44, 201.12 62.11, 197.67 62.73 C194.21 63.35, 190.63 63.93, 186.97 64.46 C183.31 64.98, 179.53 65.46, 175.7 65.89 C171.86 66.32, 167.93 66.7, 163.96 67.03 C159.98 67.35, 155.93 67.62, 151.86 67.84 C147.79 68.06, 143.66 68.23, 139.53 68.34 C135.39 68.44, 131.22 68.5, 127.07 68.5 C122.92 68.5, 118.75 68.44, 114.62 68.34 C110.48 68.23, 106.35 68.06, 102.28 67.84 C98.21 67.62, 94.16 67.35, 90.18 67.03 C86.21 66.7, 82.28 66.32, 78.44 65.89 C74.61 65.46, 70.83 64.98, 67.17 64.46 C63.51 63.93, 59.93 63.35, 56.47 62.73 C53.02 62.11, 49.67 61.44, 46.46 60.73 C43.25 60.02, 40.15 59.26, 37.22 58.47 C34.28 57.68, 31.48 56.84, 28.84 55.98 C26.21 55.11, 23.72 54.21, 21.42 53.28 C19.11 52.35, 16.96 51.38, 15 50.4 C13.05 49.41, 11.26 48.39, 9.67 47.36 C8.08 46.32, 6.68 45.26, 5.47 44.19 C4.27 43.12, 3.25 42.03, 2.44 40.93 C1.63 39.83, 1.02 38.72, 0.61 37.61 C0.2 36.49, 0 35.37, 0 34.25 C0 33.13, 0.2 32.01, 0.61 30.89 C1.02 29.78, 1.63 28.67, 2.44 27.57 C3.25 26.47, 4.27 25.38, 5.47 24.31 C6.68 23.24, 8.08 22.18, 9.67 21.14 C11.26 20.11, 13.05 19.09, 15 18.1 C16.96 17.12, 19.11 16.15, 21.42 15.22 C23.72 14.29, 26.21 13.39, 28.84 12.52 C31.48 11.66, 34.28 10.82, 37.22 10.03 C40.15 9.24, 43.25 8.48, 46.46 7.77 C49.67 7.06, 53.02 6.39, 56.47 5.77 C59.93 5.15, 63.51 4.57, 67.17 4.04 C70.83 3.52, 74.61 3.04, 78.44 2.61 C82.28 2.18, 86.21 1.8, 90.18 1.47 C94.16 1.15, 98.21 0.88, 102.28 0.66 C106.35 0.44, 110.48 0.27, 114.62 0.16 C118.75 0.06, 122.92 0, 127.07 0 C131.22 0, 135.39 0.06, 139.53 0.16 C143.66 0.27, 147.79 0.44, 151.86 0.66 C155.93 0.88, 159.98 1.15, 163.96 1.47 C167.93 1.8, 171.86 2.18, 175.7 2.61 C179.53 3.04, 183.31 3.52, 186.97 4.04 C190.63 4.57, 194.21 5.15, 197.67 5.77 C201.12 6.39, 204.47 7.06, 207.68 7.77 C210.89 8.48, 213.99 9.24, 216.92 10.03 C219.86 10.82, 222.66 11.66, 225.3 12.52 C227.93 13.39, 230.42 14.29, 232.73 15.22 C235.03 16.15, 237.18 17.12, 239.14 18.1 C241.09 19.09, 242.88 20.11, 244.47 21.14 C246.06 22.18, 247.46 23.24, 248.67 24.31 C249.87 25.38, 250.89 26.47, 251.7 27.57 C252.51 28.67, 253.12 29.78, 253.53 30.89 C253.94 32.01, 254.04 33.69, 254.14 34.25 C254.24 34.81, 254.24 33.69, 254.14 34.25" stroke="#e03131" stroke-width="2" fill="none"></path></g><g transform="translate(178.02208337397752 704.3760691418352) rotate(0 66.69596862792969 17.5)"><text x="66.69596862792969" y="0" font-family="Virgil, Segoe UI Emoji" font-size="28px" fill="#e03131" text-anchor="middle" style="white-space: pre;" direction="ltr" dominant-baseline="text-before-edge">terminada</text></g><g stroke-linecap="round"><g transform="translate(511.36738694306825 529.9694763974744) rotate(0 -69.47965701673803 89.69450850585798)"><path d="M0 0 C-23.16 29.9, -115.8 149.49, -138.96 179.39 M0 0 C-23.16 29.9, -115.8 149.49, -138.96 179.39" stroke="#e03131" stroke-width="2" fill="none"></path></g><g transform="translate(511.36738694306825 529.9694763974744) rotate(0 -69.47965701673803 89.69450850585798)"><path d="M-138.96 179.39 L-135.65 164.76 L-125.62 172.52 L-138.96 179.39" stroke="none" stroke-width="0" fill="#e03131" fill-rule="evenodd"></path><path d="M-138.96 179.39 C-137.83 174.39, -136.7 169.4, -135.65 164.76 M-138.96 179.39 C-137.82 174.36, -136.68 169.32, -135.65 164.76 M-135.65 164.76 C-133.36 166.53, -131.08 168.29, -125.62 172.52 M-135.65 164.76 C-132.38 167.29, -129.11 169.82, -125.62 172.52 M-125.62 172.52 C-130.76 175.17, -135.89 177.81, -138.96 179.39 M-125.62 172.52 C-130.25 174.9, -134.87 177.28, -138.96 179.39 M-138.96 179.39 C-138.96 179.39, -138.96 179.39, -138.96 179.39 M-138.96 179.39 C-138.96 179.39, -138.96 179.39, -138.96 179.39" stroke="#e03131" stroke-width="2" fill="none"></path></g></g><mask></mask></svg>