<svg version="1.1" xmlns="http://www.w3.org/2000/svg" viewBox="0 0 1321.6877550411982 1055.2194763974746" width="1321.6877550411982" height="1055.2194763974746" filter="invert(93%) hue-rotate(180deg)">
  <!-- svg-source:excalidraw -->
  
  <defs>
    <style class="style-fonts">
      @font-face {
        font-family: "Virgil";
        src: url("https://excalidraw.com/Virgil.woff2");
      }
      @font-face {
        font-family: "Cascadia";
        src: url("https://excalidraw.com/Cascadia.woff2");
      }
      @font-face {
        font-family: "Assistant";
        src: url("https://excalidraw.com/Assistant-Regular.woff2");
      }
    </style>
    
  </defs>
  <rect x="0" y="0" width="1321.6877550411982" height="1055.2194763974746" fill="#ffffff"></rect><g transform="translate(423.6480345215983 10) rotate(0 168.32611083984375 38.75755544122046)"><text x="0" y="0" font-family="Virgil, Segoe UI Emoji" font-size="62.01208870595268px" fill="#2f9e44" text-anchor="start" style="white-space: pre;" direction="ltr" dominant-baseline="text-before-edge">Series Plus</text></g><g transform="translate(169.67397470317275 182.4762446124962) rotate(0 442.1964111328125 38.30526702757754)"><text x="0" y="0" font-family="Virgil, Segoe UI Emoji" font-size="61.28842724412409px" fill="#2f9e44" text-anchor="start" style="white-space: pre;" direction="ltr" dominant-baseline="text-before-edge">Diagrama de entidad relación</text></g><g stroke-linecap="round" transform="translate(978.9848301906684 458.19299047027425) rotate(0 69.20012728737731 22.61442068214933)"><path d="M11.31 0 C43.02 -0.47, 72.83 0.65, 127.09 0 M11.31 0 C56.7 -0.94, 102.02 0.1, 127.09 0 M127.09 0 C135.81 0.28, 138.05 3.28, 138.4 11.31 M127.09 0 C135.61 -1.95, 138.73 5.48, 138.4 11.31 M138.4 11.31 C136.87 20.6, 136.72 26.49, 138.4 33.92 M138.4 11.31 C138.66 18.72, 138.94 25.61, 138.4 33.92 M138.4 33.92 C139.44 40, 133.4 43.62, 127.09 45.23 M138.4 33.92 C139.54 42.43, 132.67 44.66, 127.09 45.23 M127.09 45.23 C100.69 44.21, 75.88 44.46, 11.31 45.23 M127.09 45.23 C96.91 45.74, 66.16 45.66, 11.31 45.23 M11.31 45.23 C2.46 43.96, -0.98 42.7, 0 33.92 M11.31 45.23 C4.98 44.36, 0.45 41.66, 0 33.92 M0 33.92 C0.39 26.03, 1.04 16.83, 0 11.31 M0 33.92 C0.43 27.26, 0.67 20.12, 0 11.31 M0 11.31 C-0.17 3.75, 4.27 -0.09, 11.31 0 M0 11.31 C-1.33 3.46, 3.08 -0.23, 11.31 0" stroke="#2f9e44" stroke-width="4" fill="none"></path></g><g transform="translate(1005.5409755444521 463.3074111524236) rotate(0 42.64398193359375 17.5)"><text x="42.64398193359375" y="0" font-family="Virgil, Segoe UI Emoji" font-size="28px" fill="#2f9e44" text-anchor="middle" style="white-space: pre;" direction="ltr" dominant-baseline="text-before-edge">genero</text></g><g stroke-linecap="round" transform="translate(1099.915306530305 322.50430525111256) rotate(0 33.46934260958113 32)"><path d="M44.95 1.32 C50.96 2.77, 58.77 8.36, 62.39 13.79 C66.01 19.22, 67.17 27.4, 66.66 33.88 C66.15 40.37, 63.41 47.75, 59.33 52.7 C55.26 57.65, 48.44 61.94, 42.19 63.57 C35.94 65.21, 27.88 65.01, 21.82 62.51 C15.76 60, 9.54 54.06, 5.81 48.53 C2.08 43, -0.94 35.39, -0.56 29.32 C-0.18 23.25, 3.97 16.88, 8.09 12.13 C12.21 7.37, 17.54 2.31, 24.16 0.79 C30.77 -0.72, 43.47 2.28, 47.77 3.03 C52.08 3.78, 50.11 4.66, 49.98 5.28 M35.63 -0.18 C42.14 -0.2, 50.78 2.2, 55.98 6.11 C61.18 10.02, 65.56 17.1, 66.82 23.29 C68.08 29.48, 65.99 37.15, 63.54 43.26 C61.09 49.37, 57.62 56.44, 52.12 59.94 C46.63 63.43, 37.23 64.58, 30.55 64.21 C23.88 63.85, 17.01 61.83, 12.08 57.77 C7.14 53.7, 2.49 46, 0.93 39.81 C-0.63 33.61, 0.13 26.39, 2.73 20.6 C5.33 14.8, 10.94 8.24, 16.52 5.06 C22.09 1.88, 32.96 2.07, 36.18 1.5 C39.4 0.94, 35.75 1.17, 35.81 1.68" stroke="#2f9e44" stroke-width="4" fill="none"></path></g><g transform="translate(1122.186259967526 336.8768882531431) rotate(0 11.031990051269531 17.5)"><text x="11.031990051269531" y="0" font-family="Virgil, Segoe UI Emoji" font-size="28px" fill="#2f9e44" text-anchor="middle" style="white-space: pre;" direction="ltr" dominant-baseline="text-before-edge">id</text></g><g stroke-linecap="round" transform="translate(1173.2875004664436 432.5496378984351) rotate(0 69.20012728737731 34.82620785051017)"><path d="M93.43 1.82 C103.85 3.27, 114.48 8.37, 121.95 12.9 C129.43 17.43, 136.16 23.23, 138.27 29 C140.39 34.76, 138.69 41.98, 134.64 47.5 C130.6 53.01, 123.04 58.38, 114.03 62.08 C105.02 65.78, 92.26 68.65, 80.59 69.7 C68.92 70.75, 54.78 70.43, 44 68.4 C33.22 66.37, 23.06 62.21, 15.9 57.53 C8.75 52.86, 3.03 46.11, 1.08 40.36 C-0.88 34.6, 0.28 28.4, 4.17 23.01 C8.06 17.63, 15.33 11.75, 24.4 8.07 C33.48 4.39, 45.68 1.74, 58.61 0.93 C71.54 0.11, 94.01 2.12, 101.98 3.18 C109.94 4.25, 107.23 6.72, 106.38 7.32 M69.84 0.92 C80.94 0.51, 94.79 3.2, 104.82 5.78 C114.86 8.37, 124.59 11.77, 130.03 16.43 C135.48 21.09, 137.52 27.65, 137.47 33.74 C137.43 39.83, 135.61 47.82, 129.75 52.98 C123.89 58.14, 112.62 61.99, 102.31 64.68 C91.99 67.36, 79.38 69.07, 67.84 69.08 C56.29 69.08, 42.81 67.4, 33.03 64.71 C23.25 62.01, 14.64 58, 9.17 52.9 C3.7 47.79, 0.39 40.05, 0.21 34.09 C0.03 28.13, 2.35 21.86, 8.08 17.11 C13.8 12.36, 24.56 8.3, 34.56 5.59 C44.55 2.88, 62.41 1.85, 68.06 0.87 C73.71 -0.1, 68.36 -0.85, 68.46 -0.26" stroke="#2f9e44" stroke-width="4" fill="none"></path></g><g transform="translate(1198.6097646032254 449.7499980148373) rotate(0 43.94598388671875 17.5)"><text x="43.94598388671875" y="0" font-family="Virgil, Segoe UI Emoji" font-size="28px" fill="#2f9e44" text-anchor="middle" style="white-space: pre;" direction="ltr" dominant-baseline="text-before-edge">nombre</text></g><g stroke-linecap="round"><g transform="translate(1077.9113660161318 443.71976123369836) rotate(0 19.536450327056627 -25.034454055794527)"><path d="M0.52 1.05 C7.13 -7.42, 32.96 -41.31, 39.49 -50.01 M-0.67 0.56 C5.83 -7.77, 32.11 -39.95, 38.76 -48.44" stroke="#2f9e44" stroke-width="4" fill="none"></path></g><g transform="translate(1077.9113660161318 443.71976123369836) rotate(0 19.536450327056627 -25.034454055794527)"><path d="M30.74 -24.76 C34.64 -30.91, 35.3 -37.38, 38.76 -48.44 M30.74 -24.76 C32.8 -29.65, 33.74 -35.06, 38.76 -48.44" stroke="#2f9e44" stroke-width="4" fill="none"></path></g><g transform="translate(1077.9113660161318 443.71976123369836) rotate(0 19.536450327056627 -25.034454055794527)"><path d="M17.4 -35.46 C25.21 -38.58, 29.7 -41.98, 38.76 -48.44 M17.4 -35.46 C22.39 -38.1, 26.16 -41.24, 38.76 -48.44" stroke="#2f9e44" stroke-width="4" fill="none"></path></g></g><mask></mask><g stroke-linecap="round"><g transform="translate(1123.7171225564248 469.8375262521256) rotate(0 22.886576269020452 -5.36741808834347)"><path d="M0.16 -0.05 C7.69 -1.94, 37.93 -9.41, 45.55 -11.12 M-0.42 -0.55 C6.98 -2.4, 37.34 -8.85, 45.01 -10.62" stroke="#2f9e44" stroke-width="4" fill="none"></path></g><g transform="translate(1123.7171225564248 469.8375262521256) rotate(0 22.886576269020452 -5.36741808834347)"><path d="M25.17 1.99 C32.43 -3.12, 39.2 -7.22, 45.01 -10.62 M25.17 1.99 C32.94 -2.43, 40.45 -7.64, 45.01 -10.62" stroke="#2f9e44" stroke-width="4" fill="none"></path></g><g transform="translate(1123.7171225564248 469.8375262521256) rotate(0 22.886576269020452 -5.36741808834347)"><path d="M21.71 -13.71 C30.29 -12.99, 38.34 -11.25, 45.01 -10.62 M21.71 -13.71 C30.79 -12.17, 39.61 -11.41, 45.01 -10.62" stroke="#2f9e44" stroke-width="4" fill="none"></path></g></g><mask></mask><g stroke-linecap="round" transform="translate(390.74650707307086 474.771141634282) rotate(0 87.29166383309672 28.94645847315121)"><path d="M14.47 0 C60.94 0.23, 101.92 -1.14, 160.11 0 M14.47 0 C54.71 1.1, 94.93 1.7, 160.11 0 M160.11 0 C171.05 0.06, 172.91 3.99, 174.58 14.47 M160.11 0 C169.39 0.32, 174.72 4.56, 174.58 14.47 M174.58 14.47 C173.08 25.85, 174.71 35.11, 174.58 43.42 M174.58 14.47 C175.1 20.54, 174.43 25.56, 174.58 43.42 M174.58 43.42 C172.72 51.27, 170.4 58.69, 160.11 57.89 M174.58 43.42 C173.24 52.83, 169.38 59.27, 160.11 57.89 M160.11 57.89 C125.62 57.85, 90.25 59.4, 14.47 57.89 M160.11 57.89 C129.9 56.98, 98.12 56.11, 14.47 57.89 M14.47 57.89 C3.12 56.25, 0.98 52.51, 0 43.42 M14.47 57.89 C3.14 56.49, 0.06 54.33, 0 43.42 M0 43.42 C-1.19 36.88, -0.97 28.54, 0 14.47 M0 43.42 C-0.07 32.37, -0.38 23.29, 0 14.47 M0 14.47 C1.08 4.31, 6.02 0.63, 14.47 0 M0 14.47 C-1.76 3.71, 4.93 1.39, 14.47 0" stroke="#2f9e44" stroke-width="4" fill="none"></path></g><g transform="translate(413.83420667276914 486.2176001074333) rotate(0 64.20396423339844 17.5)"><text x="64.20396423339844" y="0" font-family="Virgil, Segoe UI Emoji" font-size="28px" fill="#2f9e44" text-anchor="middle" style="white-space: pre;" direction="ltr" dominant-baseline="text-before-edge">Contenido</text></g><g stroke-linecap="round" transform="translate(299.4630521195005 313.4965319971234) rotate(0 43.41968770972691 32)"><path d="M53.2 1.52 C61.42 2.51, 71.44 6.04, 77.07 10.63 C82.7 15.22, 86.46 22.74, 86.98 29.06 C87.5 35.38, 84.49 43.06, 80.18 48.55 C75.87 54.05, 68.92 59.44, 61.12 62.02 C53.32 64.6, 41.83 65.46, 33.4 64.05 C24.98 62.63, 15.97 58.27, 10.58 53.53 C5.18 48.8, 1.73 42.06, 1.03 35.65 C0.34 29.25, 2.11 20.51, 6.43 15.09 C10.74 9.67, 18.2 5.21, 26.93 3.12 C35.65 1.03, 52.99 2.53, 58.78 2.55 C64.57 2.56, 62.07 2.97, 61.68 3.21 M39.63 0.26 C47.64 -0.64, 58.92 2.03, 66.55 5.39 C74.18 8.76, 82.28 14.76, 85.42 20.45 C88.56 26.14, 87.72 33.35, 85.41 39.53 C83.1 45.71, 78.04 53.51, 71.57 57.53 C65.1 61.55, 55.39 63.24, 46.59 63.65 C37.79 64.07, 25.88 63.23, 18.77 60.01 C11.66 56.79, 6.77 50.6, 3.93 44.35 C1.09 38.09, -0.4 28.41, 1.73 22.46 C3.87 16.5, 10.15 12.38, 16.75 8.63 C23.36 4.88, 37.4 1.03, 41.37 -0.07 C45.34 -1.17, 40.72 1.3, 40.58 2.02" stroke="#2f9e44" stroke-width="4" fill="none"></path></g><g transform="translate(331.6483941614078 327.8691149991539) rotate(0 11.031990051269531 17.5)"><text x="11.031990051269531" y="0" font-family="Virgil, Segoe UI Emoji" font-size="28px" fill="#2f9e44" text-anchor="middle" style="white-space: pre;" direction="ltr" dominant-baseline="text-before-edge">id</text></g><g stroke-linecap="round" transform="translate(155.70549667828004 348.0191983207844) rotate(0 63.320377910018436 32)"><path d="M63.23 0.41 C73.23 -0.08, 86.35 0.9, 95.62 3.38 C104.89 5.87, 113.77 10.67, 118.83 15.31 C123.89 19.95, 126.04 25.78, 125.96 31.23 C125.89 36.68, 123.71 43.33, 118.39 47.99 C113.08 52.65, 103.2 56.67, 94.08 59.18 C84.96 61.68, 74.26 63.05, 63.67 63.03 C53.08 63.02, 39.61 61.72, 30.55 59.08 C21.48 56.45, 14.53 51.87, 9.28 47.22 C4.03 42.57, -0.85 36.31, -0.94 31.18 C-1.02 26.05, 3.27 20.82, 8.78 16.45 C14.29 12.08, 22.5 7.58, 32.13 4.95 C41.75 2.32, 60.24 1.36, 66.56 0.68 C72.88 0.01, 69.88 0.39, 70.02 0.92 M51.36 0.56 C61.46 -1.02, 76.07 -1.21, 86.05 0.62 C96.02 2.44, 104.85 7.37, 111.22 11.51 C117.59 15.64, 122.43 20.45, 124.24 25.45 C126.06 30.45, 125.3 36.46, 122.12 41.5 C118.94 46.54, 113.02 51.82, 105.16 55.71 C97.3 59.6, 85.54 63.71, 74.98 64.84 C64.42 65.97, 51.87 64.28, 41.79 62.49 C31.71 60.7, 21.3 58.36, 14.49 54.11 C7.68 49.87, 2.65 42.67, 0.94 37.04 C-0.77 31.41, 0.84 25.37, 4.25 20.35 C7.66 15.33, 13.67 10.18, 21.41 6.91 C29.15 3.63, 45.73 1.82, 50.69 0.72 C55.65 -0.38, 50.82 -0.05, 51.17 0.31" stroke="#2f9e44" stroke-width="4" fill="none"></path></g><g transform="translate(180.97562789245066 362.39178132281495) rotate(0 38.275978088378906 17.5)"><text x="38.275978088378906" y="0" font-family="Virgil, Segoe UI Emoji" font-size="28px" fill="#2f9e44" text-anchor="middle" style="white-space: pre;" direction="ltr" dominant-baseline="text-before-edge">titulo</text></g><g stroke-linecap="round" transform="translate(43.158002904691045 496.9138407678163) rotate(0 107.19235403338826 32)"><path d="M93.77 1.01 C107.26 -0.2, 123.91 -0.32, 137.72 0.74 C151.53 1.79, 165.66 4.56, 176.63 7.37 C187.61 10.18, 197.35 13.52, 203.58 17.59 C209.81 21.67, 213.39 27.54, 214.01 31.83 C214.62 36.13, 212.83 39.59, 207.26 43.36 C201.7 47.13, 191.2 51.41, 180.62 54.45 C170.04 57.48, 157.24 60.06, 143.77 61.56 C130.29 63.07, 114.28 63.69, 99.76 63.46 C85.23 63.24, 69.62 62.28, 56.62 60.19 C43.61 58.09, 30.62 54.17, 21.72 50.89 C12.83 47.61, 6.72 44.78, 3.25 40.52 C-0.22 36.26, -1.57 29.86, 0.88 25.32 C3.32 20.78, 9.57 16.58, 17.93 13.28 C26.29 9.98, 38.09 7.63, 51.05 5.5 C64.01 3.37, 87.91 1.15, 95.7 0.52 C103.5 -0.1, 97.64 1.23, 97.81 1.73 M94.49 -0.92 C108.19 -1.46, 126.78 1.46, 140.64 2.79 C154.49 4.13, 167.08 4.19, 177.6 7.09 C188.13 9.98, 197.69 15.92, 203.8 20.15 C209.9 24.37, 214.2 28.28, 214.23 32.46 C214.27 36.63, 209.92 41.4, 204.01 45.17 C198.09 48.95, 189.07 52.27, 178.73 55.11 C168.38 57.94, 155.81 60.81, 141.94 62.19 C128.08 63.56, 110.32 63.74, 95.53 63.35 C80.73 62.96, 65.89 61.93, 53.19 59.84 C40.49 57.75, 27.79 54.07, 19.34 50.81 C10.89 47.56, 5.15 44.68, 2.49 40.3 C-0.16 35.92, 0.45 28.97, 3.41 24.52 C6.37 20.08, 12.04 17.07, 20.27 13.61 C28.5 10.15, 40.09 6.21, 52.79 3.78 C65.5 1.35, 89.51 -0.47, 96.48 -0.97 C103.46 -1.46, 94.72 -0.12, 94.64 0.81" stroke="#2f9e44" stroke-width="4" fill="none"></path></g><g transform="translate(79.923957403276 511.2864237698468) rotate(0 70.62995910644531 17.5)"><text x="70.62995910644531" y="0" font-family="Virgil, Segoe UI Emoji" font-size="28px" fill="#2f9e44" text-anchor="middle" style="white-space: pre;" direction="ltr" dominant-baseline="text-before-edge">descripción</text></g><g stroke-linecap="round"><g transform="translate(441.73979634994635 464.82079653413575) rotate(0 -43.75324524878228 -39.96361870764349)"><path d="M1.14 0.26 C-13.53 -12.98, -72.52 -66.06, -87.49 -79.36 M0.27 -0.65 C-14.59 -14.25, -73.99 -67.68, -88.43 -81.19" stroke="#2f9e44" stroke-width="4" fill="none"></path></g><g transform="translate(441.73979634994635 464.82079653413575) rotate(0 -43.75324524878228 -39.96361870764349)"><path d="M-65.32 -71.64 C-72.77 -74.65, -80.15 -79.86, -88.43 -81.19 M-65.32 -71.64 C-72.42 -75.48, -79.75 -76.83, -88.43 -81.19" stroke="#2f9e44" stroke-width="4" fill="none"></path></g><g transform="translate(441.73979634994635 464.82079653413575) rotate(0 -43.75324524878228 -39.96361870764349)"><path d="M-76.87 -59.03 C-80.39 -66.44, -83.83 -75.96, -88.43 -81.19 M-76.87 -59.03 C-80.11 -67.12, -83.63 -72.64, -88.43 -81.19" stroke="#2f9e44" stroke-width="4" fill="none"></path></g></g><mask></mask><g stroke-linecap="round"><g transform="translate(435.11075843597206 462.1606885578419) rotate(0 -82.34920920615428 -26.848018457594662)"><path d="M0.38 0.88 C-27.25 -8.34, -138.36 -45.37, -165.8 -54.49 M-0.88 0.3 C-28.15 -8.87, -136.35 -44.56, -163.67 -53.37" stroke="#2f9e44" stroke-width="4" fill="none"></path></g><g transform="translate(435.11075843597206 462.1606885578419) rotate(0 -82.34920920615428 -26.848018457594662)"><path d="M-138.68 -54.2 C-144.64 -55.71, -154.87 -52.91, -163.67 -53.37 M-138.68 -54.2 C-146.64 -53.67, -153.27 -53.62, -163.67 -53.37" stroke="#2f9e44" stroke-width="4" fill="none"></path></g><g transform="translate(435.11075843597206 462.1606885578419) rotate(0 -82.34920920615428 -26.848018457594662)"><path d="M-143.99 -37.95 C-148.49 -44.31, -157.14 -46.34, -163.67 -53.37 M-143.99 -37.95 C-150.48 -42.11, -155.56 -46.78, -163.67 -53.37" stroke="#2f9e44" stroke-width="4" fill="none"></path></g></g><mask></mask><g stroke-linecap="round"><g transform="translate(378.98700831835293 497.5641709772958) rotate(0 -67.71242109310589 3.9717800522605557)"><path d="M0.02 0.37 C-22.4 1.89, -111.88 7.6, -134.64 8.81 M-1.42 -0.48 C-23.93 0.74, -113.04 5.61, -135.17 7.14" stroke="#2f9e44" stroke-width="4" fill="none"></path></g><g transform="translate(378.98700831835293 497.5641709772958) rotate(0 -67.71242109310589 3.9717800522605557)"><path d="M-112.24 -2.82 C-118.38 1.41, -124.29 1.14, -135.17 7.14 M-112.24 -2.82 C-118.32 -1.28, -125.07 2.26, -135.17 7.14" stroke="#2f9e44" stroke-width="4" fill="none"></path></g><g transform="translate(378.98700831835293 497.5641709772958) rotate(0 -67.71242109310589 3.9717800522605557)"><path d="M-111.21 14.25 C-117.6 13.47, -123.81 8.19, -135.17 7.14 M-111.21 14.25 C-117.45 11.18, -124.47 10.13, -135.17 7.14" stroke="#2f9e44" stroke-width="4" fill="none"></path></g></g><mask></mask><g stroke-linecap="round" transform="translate(682.9248222864419 431.0060307518411) rotate(0 92.26683638316968 47.435234217704874)"><path d="M116.25 12 C125.35 16.98, 135.81 21.89, 161.28 36 M116.25 12 C132.72 21.08, 150.5 31.32, 161.28 36 M161.28 36 C182.86 46.65, 183.72 47.46, 161.28 60 M161.28 36 C182.35 46.35, 185.32 46.38, 161.28 60 M161.28 60 C147.82 67.54, 137.23 73.12, 116.25 82.87 M161.28 60 C145.32 67.37, 128.66 76.42, 116.25 82.87 M116.25 82.87 C93.11 94.25, 92.48 93.01, 69.75 82.87 M116.25 82.87 C92.57 95.45, 94.29 93.5, 69.75 82.87 M69.75 82.87 C56.76 75.71, 40.61 69.09, 23.25 60 M69.75 82.87 C54.43 75.55, 40.91 68.61, 23.25 60 M23.25 60 C0.03 47.52, -1.24 46.91, 23.25 36 M23.25 60 C1.03 47.49, 1.2 49.6, 23.25 36 M23.25 36 C37.68 27.89, 53.49 19.65, 69.75 12 M23.25 36 C39.96 27.68, 58.14 17.82, 69.75 12 M69.75 12 C92.57 1.72, 92.91 0.47, 116.25 12 M69.75 12 C95.16 1.99, 92.04 1.17, 116.25 12" stroke="#2f9e44" stroke-width="4" fill="none"></path></g><g transform="translate(742.2282615351558 460.7236478606935) rotate(0 32.829978942871094 17.5)"><text x="32.829978942871094" y="0" font-family="Virgil, Segoe UI Emoji" font-size="28px" fill="#2f9e44" text-anchor="middle" style="white-space: pre;" direction="ltr" dominant-baseline="text-before-edge">tiene</text></g><g stroke-linecap="round"><g transform="translate(573.4710261848384 504.9536190380986) rotate(0 52.280537199196345 -13.77305369903479)"><path d="M1.15 -0.68 C18.63 -5.49, 87.69 -23.74, 104.8 -28.4 M0.29 1.58 C17.64 -3.14, 86.3 -22.4, 103.98 -27.31" stroke="#2f9e44" stroke-width="4" fill="none"></path></g></g><mask></mask><g stroke-linecap="round"><g transform="translate(871.1510232070157 487.179265442604) rotate(0 48.03715411446751 -1.9777595513812685)"><path d="M0.08 0.44 C16.34 0.02, 80.76 -2.53, 96.76 -3.33 M-1.34 -0.37 C14.89 -1.07, 80.06 -4.65, 96.18 -5.12" stroke="#2f9e44" stroke-width="4" fill="none"></path></g></g><mask></mask><g transform="translate(941.6337948902312 439.49264537012914) rotate(0 9.015998840332031 17.5)"><text x="0" y="0" font-family="Virgil, Segoe UI Emoji" font-size="28px" fill="#2f9e44" text-anchor="start" style="white-space: pre;" direction="ltr" dominant-baseline="text-before-edge">N</text></g><g transform="translate(576.214526099224 454.55741115242427) rotate(0 9.015998840332031 17.5)"><text x="0" y="0" font-family="Virgil, Segoe UI Emoji" font-size="28px" fill="#2f9e44" text-anchor="start" style="white-space: pre;" direction="ltr" dominant-baseline="text-before-edge">N</text></g><g stroke-linecap="round" transform="translate(294.7787140769219 793.5230179243234) rotate(0 87.29166383309672 28.94645847315121)"><path d="M14.47 0 C59.75 -1.86, 101.57 1.7, 160.11 0 M14.47 0 C61.66 0.93, 107.24 1.44, 160.11 0 M160.11 0 C170.52 -1.05, 172.95 6.08, 174.58 14.47 M160.11 0 C168.47 2.25, 176.57 4.04, 174.58 14.47 M174.58 14.47 C174.74 23.08, 174.03 31.88, 174.58 43.42 M174.58 14.47 C175.82 24.47, 175.05 33.76, 174.58 43.42 M174.58 43.42 C173.5 54.08, 170.81 56.68, 160.11 57.89 M174.58 43.42 C174.11 53.15, 172.02 60.12, 160.11 57.89 M160.11 57.89 C102.89 57.84, 49.55 56.93, 14.47 57.89 M160.11 57.89 C110.37 56.77, 61.28 58.45, 14.47 57.89 M14.47 57.89 C5.07 55.93, 0.75 52.5, 0 43.42 M14.47 57.89 C3.56 57.86, -2.21 51.49, 0 43.42 M0 43.42 C-1.1 32.94, 0.09 20.38, 0 14.47 M0 43.42 C-0.64 35.48, -0.28 27.39, 0 14.47 M0 14.47 C1.03 4.93, 6.39 -0.46, 14.47 0 M0 14.47 C-2.21 4.77, 4.6 -0.79, 14.47 0" stroke="#2f9e44" stroke-width="4" fill="none"></path></g><g transform="translate(349.1563993333585 804.9694763974746) rotate(0 32.913978576660156 17.5)"><text x="32.913978576660156" y="0" font-family="Virgil, Segoe UI Emoji" font-size="28px" fill="#2f9e44" text-anchor="middle" style="white-space: pre;" direction="ltr" dominant-baseline="text-before-edge">Serie</text></g><g stroke-linecap="round" transform="translate(32.400690200291365 736.7194763974746) rotate(0 43.4196877097269 32)"><path d="M29.31 1.73 C36.61 -0.59, 47.04 0.06, 55.07 1.82 C63.09 3.58, 72.27 7.33, 77.46 12.31 C82.65 17.3, 85.93 25.37, 86.22 31.73 C86.51 38.08, 83.84 45.36, 79.21 50.43 C74.59 55.49, 66.55 60.12, 58.47 62.11 C50.4 64.1, 38.98 64.19, 30.77 62.37 C22.56 60.56, 14.5 56.13, 9.22 51.22 C3.95 46.31, -0.58 39.27, -0.9 32.92 C-1.22 26.57, 1.4 18.48, 7.32 13.12 C13.23 7.77, 28.9 2.75, 34.61 0.78 C40.32 -1.19, 41.3 0.86, 41.57 1.3 M54.64 2.35 C62.72 3.74, 73.22 8.15, 78.49 12.7 C83.75 17.24, 86.11 23.29, 86.23 29.64 C86.36 36, 84.09 45.25, 79.23 50.81 C74.38 56.37, 65.35 61.04, 57.1 63 C48.84 64.97, 37.92 64.37, 29.71 62.58 C21.51 60.78, 12.74 57.38, 7.86 52.25 C2.98 47.12, 0.43 38.43, 0.45 31.8 C0.46 25.17, 3.31 17.46, 7.94 12.47 C12.57 7.48, 20.49 3.57, 28.25 1.87 C36.01 0.17, 49.72 2.44, 54.48 2.27 C59.24 2.1, 56.95 0.27, 56.82 0.85" stroke="#2f9e44" stroke-width="4" fill="none"></path></g><g transform="translate(64.58603224219866 751.0920593995052) rotate(0 11.031990051269531 17.5)"><text x="11.031990051269531" y="0" font-family="Virgil, Segoe UI Emoji" font-size="28px" fill="#2f9e44" text-anchor="middle" style="white-space: pre;" direction="ltr" dominant-baseline="text-before-edge">id</text></g><g stroke-linecap="round" transform="translate(10 817.9694763974748) rotate(0 63.320377910018436 32)"><path d="M81.94 2.19 C91.7 3.03, 102.54 5.79, 109.58 9.49 C116.61 13.18, 121.8 19.13, 124.14 24.38 C126.47 29.63, 126.6 35.86, 123.59 40.96 C120.58 46.07, 113.74 51.19, 106.09 55.01 C98.44 58.84, 87.73 62.52, 77.7 63.9 C67.67 65.29, 55.96 64.89, 45.91 63.35 C35.86 61.81, 24.65 58.81, 17.39 54.67 C10.14 50.52, 4.88 43.79, 2.4 38.49 C-0.07 33.19, -0.46 27.96, 2.56 22.86 C5.57 17.76, 12.97 11.48, 20.5 7.88 C28.03 4.29, 37.25 2.34, 47.74 1.27 C58.24 0.21, 77.17 1.29, 83.47 1.52 C89.76 1.75, 85.93 2.19, 85.53 2.65 M55.86 1.26 C65.79 0.5, 78.09 1.19, 87.97 3.22 C97.84 5.25, 108.56 9.06, 115.11 13.45 C121.66 17.84, 126.35 24.32, 127.29 29.57 C128.23 34.81, 125.31 40.38, 120.75 44.93 C116.2 49.47, 108.3 53.59, 99.97 56.85 C91.65 60.11, 81.28 63.65, 70.8 64.51 C60.32 65.37, 46.71 64.35, 37.09 62.01 C27.46 59.67, 19.06 54.8, 13.06 50.47 C7.06 46.15, 2.52 41.16, 1.07 36.05 C-0.37 30.94, 0 24.68, 4.37 19.82 C8.75 14.96, 18.49 10.38, 27.31 6.87 C36.14 3.36, 52.5 -0.23, 57.31 -1.23 C62.12 -2.23, 56.25 0.08, 56.17 0.88" stroke="#2f9e44" stroke-width="4" fill="none"></path></g><g transform="translate(35.27013121417065 832.3420593995053) rotate(0 38.275978088378906 17.5)"><text x="38.275978088378906" y="0" font-family="Virgil, Segoe UI Emoji" font-size="28px" fill="#2f9e44" text-anchor="middle" style="white-space: pre;" direction="ltr" dominant-baseline="text-before-edge">titulo</text></g><g stroke-linecap="round"><g transform="translate(283.3203779100183 798.8191861887562) rotate(0 -77.45260457776993 -15.155655627706778)"><path d="M1 -0.13 C-24.9 -5.28, -128.93 -25.44, -154.98 -30.66 M0.06 -1.24 C-26.04 -6.24, -129.91 -24.39, -155.97 -29.31" stroke="#2f9e44" stroke-width="4" fill="none"></path></g><g transform="translate(283.3203779100183 798.8191861887562) rotate(0 -77.45260457776993 -15.155655627706778)"><path d="M-157.04 -29.18 L-142.23 -31.9 L-145.17 -19.8 L-154.31 -31.18" stroke="none" stroke-width="0" fill="#2f9e44" fill-rule="evenodd"></path><path d="M-155.97 -29.31 C-151.3 -30.8, -146.75 -32.49, -141.46 -33.13 M-155.97 -29.31 C-152.31 -29.68, -150.22 -30.3, -141.46 -33.13 M-141.46 -33.13 C-141.9 -28.36, -141.71 -24.3, -143.72 -20.65 M-141.46 -33.13 C-142.09 -29.43, -143.21 -26.32, -143.72 -20.65 M-143.72 -20.65 C-148.69 -24.18, -152.69 -27.24, -155.97 -29.31 M-143.72 -20.65 C-146.89 -23.3, -151.07 -25.38, -155.97 -29.31 M-155.97 -29.31 C-155.97 -29.31, -155.97 -29.31, -155.97 -29.31 M-155.97 -29.31 C-155.97 -29.31, -155.97 -29.31, -155.97 -29.31" stroke="#2f9e44" stroke-width="4" fill="none"></path></g></g><mask></mask><g stroke-linecap="round"><g transform="translate(285.8203779100183 827.1797969862703) rotate(0 -70.13580713432778 9.245395775940892)"><path d="M0.47 -1.08 C-22.91 1.87, -117.06 14.31, -140.65 17.69 M-0.74 0.97 C-24.28 4.05, -118.82 16.1, -141.79 18.81" stroke="#2f9e44" stroke-width="4" fill="none"></path></g><g transform="translate(285.8203779100183 827.1797969862703) rotate(0 -70.13580713432778 9.245395775940892)"><path d="M-141.84 19.93 L-127.45 8.98 L-127.34 22.14 L-141.62 17.57" stroke="none" stroke-width="0" fill="#2f9e44" fill-rule="evenodd"></path><path d="M-141.79 18.81 C-139.7 16.14, -135.92 13.49, -129.08 10.85 M-141.79 18.81 C-136.88 16.44, -133.17 12.52, -129.08 10.85 M-129.08 10.85 C-127.41 14.25, -129.13 17.52, -127.52 23.43 M-129.08 10.85 C-128.8 14.89, -127.89 18.81, -127.52 23.43 M-127.52 23.43 C-130.13 21.29, -134.08 19.84, -141.79 18.81 M-127.52 23.43 C-132.36 21.78, -137.47 20.19, -141.79 18.81 M-141.79 18.81 C-141.79 18.81, -141.79 18.81, -141.79 18.81 M-141.79 18.81 C-141.79 18.81, -141.79 18.81, -141.79 18.81" stroke="#2f9e44" stroke-width="4" fill="none"></path></g></g><mask></mask><g stroke-linecap="round" transform="translate(23.750000000000057 899.2194763974746) rotate(0 63.320377910018436 32)"><path d="M59.41 0.71 C69.33 -0.02, 82.61 1.87, 92.15 4.25 C101.7 6.64, 111.06 10.7, 116.65 15.01 C122.25 19.31, 125.29 24.94, 125.72 30.08 C126.14 35.23, 123.91 41.22, 119.19 45.87 C114.48 50.52, 106.21 54.94, 97.43 57.98 C88.64 61.03, 76.83 63.83, 66.47 64.16 C56.1 64.48, 44.48 62.5, 35.22 59.95 C25.97 57.4, 16.87 53.37, 10.94 48.87 C5 44.37, 0.44 38.14, -0.39 32.93 C-1.21 27.72, 1 22.17, 5.97 17.6 C10.94 13.03, 19.13 8.26, 29.45 5.49 C39.77 2.72, 60.28 1.61, 67.87 0.96 C75.47 0.32, 75.18 1.06, 75.04 1.6 M81.56 0.36 C91.14 1.35, 102.15 5.5, 109.66 9.42 C117.17 13.34, 124.37 18.34, 126.61 23.9 C128.85 29.46, 126.72 37.64, 123.08 42.78 C119.44 47.91, 112.7 51.36, 104.75 54.7 C96.8 58.03, 85.47 61.45, 75.36 62.78 C65.24 64.12, 54.04 64.03, 44.08 62.69 C34.12 61.35, 22.54 58.69, 15.6 54.72 C8.67 50.74, 4.53 44.19, 2.47 38.84 C0.41 33.49, -0.04 27.55, 3.24 22.62 C6.52 17.68, 14.46 12.69, 22.13 9.23 C29.81 5.78, 39.19 3.28, 49.29 1.88 C59.4 0.48, 77.17 0.64, 82.76 0.83 C88.35 1.03, 83.1 2.59, 82.86 3.08" stroke="#2f9e44" stroke-width="4" fill="none"></path></g><g transform="translate(56.23013029864336 913.5920593995052) rotate(0 31.06597900390625 17.5)"><text x="31.06597900390625" y="0" font-family="Virgil, Segoe UI Emoji" font-size="28px" fill="#2f9e44" text-anchor="middle" style="white-space: pre;" direction="ltr" dominant-baseline="text-before-edge">path</text></g><g stroke-linecap="round"><g transform="translate(283.0827381056814 855.2344791198202) rotate(0 -60.043219137017275 35.256477969894945)"><path d="M0.63 -0.99 C-19.35 10.84, -100.78 58.81, -120.99 70.53 M-0.5 1.1 C-20.01 13.18, -98.55 60.59, -118.75 72.08" stroke="#2f9e44" stroke-width="4" fill="none"></path></g><g transform="translate(283.0827381056814 855.2344791198202) rotate(0 -60.043219137017275 35.256477969894945)"><path d="M-118.42 71.85 L-109.71 60.86 L-103.62 72.54 L-118.23 72.15" stroke="none" stroke-width="0" fill="#2f9e44" fill-rule="evenodd"></path><path d="M-118.75 72.08 C-118.18 68.35, -115.16 66.24, -110.25 59.72 M-118.75 72.08 C-117.3 70.3, -114.77 67.64, -110.25 59.72 M-110.25 59.72 C-108.48 64.13, -104.86 68.05, -103.82 70.64 M-110.25 59.72 C-109.2 61.56, -107.45 64.24, -103.82 70.64 M-103.82 70.64 C-107.21 70.62, -112.92 71.86, -118.75 72.08 M-103.82 70.64 C-107.75 71.01, -110.68 71.91, -118.75 72.08 M-118.75 72.08 C-118.75 72.08, -118.75 72.08, -118.75 72.08 M-118.75 72.08 C-118.75 72.08, -118.75 72.08, -118.75 72.08" stroke="#2f9e44" stroke-width="4" fill="none"></path></g></g><mask></mask><g stroke-linecap="round" transform="translate(359.8035415268486 603.7842421797695) rotate(0 92.26683638316966 47.435234217704874)"><path d="M116.25 12 C134.13 22.36, 147.55 30.22, 161.28 36 M116.25 12 C131.15 20.13, 145.38 26.74, 161.28 36 M161.28 36 C185.81 47.21, 183.77 49.2, 161.28 60 M161.28 36 C185.52 47.18, 184.75 46.32, 161.28 60 M161.28 60 C145.16 67.98, 126.3 78.69, 116.25 82.87 M161.28 60 C152.09 65.22, 141.54 69.15, 116.25 82.87 M116.25 82.87 C91.55 93.64, 91.12 94.09, 69.75 82.87 M116.25 82.87 C91.34 93.69, 92.18 93.22, 69.75 82.87 M69.75 82.87 C50.95 74.84, 33.92 63.52, 23.25 60 M69.75 82.87 C57.41 76.45, 45.62 71.28, 23.25 60 M23.25 60 C1.64 49.09, 1.06 49.68, 23.25 36 M23.25 60 C1.64 45.93, -0.6 49.94, 23.25 36 M23.25 36 C37.16 27.07, 50.78 19.99, 69.75 12 M23.25 36 C40.61 26.52, 58.42 18.63, 69.75 12 M69.75 12 C92.12 -0.72, 91.84 -0.41, 116.25 12 M69.75 12 C92.74 1.75, 95.21 -0.31, 116.25 12" stroke="#2f9e44" stroke-width="4" fill="none"></path></g><g transform="translate(419.10698077556236 633.501859288622) rotate(0 32.829978942871094 17.5)"><text x="32.829978942871094" y="0" font-family="Virgil, Segoe UI Emoji" font-size="28px" fill="#2f9e44" text-anchor="middle" style="white-space: pre;" direction="ltr" dominant-baseline="text-before-edge">tiene</text></g><g stroke-linecap="round"><g transform="translate(412.99573215234125 690.5157558335679) rotate(0 -10.872993960160159 46.60186028195329)"><path d="M0.3 -0.2 C-3.21 15.46, -18.53 77.76, -22.08 93.48 M-0.99 -1.36 C-4.62 13.97, -19.81 75.9, -23.21 91.5" stroke="#2f9e44" stroke-width="4" fill="none"></path></g></g><mask></mask><g stroke-linecap="round"><g transform="translate(462.97998680309723 541.2194763974744) rotate(0 -10.274094840597172 27.318912696029543)"><path d="M0.89 0.15 C-2.8 9.08, -17.42 44.88, -21.12 53.8 M-0.1 -0.81 C-4.09 8.22, -19.25 45.68, -22.37 54.9" stroke="#2f9e44" stroke-width="4" fill="none"></path></g></g><mask></mask><g transform="translate(475.55437906968626 541.2194763974744) rotate(0 9.015998840332031 17.5)"><text x="0" y="0" font-family="Virgil, Segoe UI Emoji" font-size="28px" fill="#2f9e44" text-anchor="start" style="white-space: pre;" direction="ltr" dominant-baseline="text-before-edge">N</text></g><g transform="translate(409.30437906968626 754.9694763974745) rotate(0 9.015998840332031 17.5)"><text x="0" y="0" font-family="Virgil, Segoe UI Emoji" font-size="28px" fill="#2f9e44" text-anchor="start" style="white-space: pre;" direction="ltr" dominant-baseline="text-before-edge">N</text></g><g stroke-linecap="round" transform="translate(18.749999999999943 982.2194763974746) rotate(0 80.82037791001848 31.5)"><path d="M94.96 1.03 C106.84 1.45, 120.9 3.43, 130.82 6.47 C140.74 9.51, 149.27 14.71, 154.47 19.27 C159.68 23.84, 162.79 29.16, 162.06 33.86 C161.33 38.55, 156.5 43.49, 150.09 47.44 C143.67 51.38, 134.22 55.04, 123.59 57.53 C112.95 60.02, 98.72 61.93, 86.3 62.4 C73.87 62.87, 60.66 62.13, 49.03 60.35 C37.4 58.57, 24.49 55.54, 16.5 51.71 C8.52 47.88, 3.18 42.31, 1.12 37.36 C-0.93 32.42, 0.57 26.55, 4.18 22.03 C7.78 17.51, 14.01 13.7, 22.75 10.24 C31.5 6.78, 42.57 2.58, 56.65 1.27 C70.72 -0.04, 97.15 1.98, 107.22 2.38 C117.28 2.78, 117.33 3.2, 117.02 3.67 M92.27 -0.08 C104.37 0.27, 119.42 4.22, 129.75 7 C140.09 9.78, 149.21 12.6, 154.28 16.61 C159.35 20.63, 160.7 25.79, 160.16 31.07 C159.62 36.35, 156.92 43.6, 151.06 48.3 C145.2 53.01, 135.69 57.01, 125 59.3 C114.31 61.6, 99.44 61.65, 86.91 62.09 C74.38 62.52, 61.13 63.64, 49.81 61.91 C38.48 60.18, 27.02 55.59, 18.97 51.72 C10.91 47.85, 4.19 43.33, 1.49 38.71 C-1.22 34.09, -0.69 28.69, 2.73 24.02 C6.15 19.35, 13.51 14.52, 22 10.7 C30.5 6.87, 41.72 2.56, 53.7 1.08 C65.67 -0.41, 87.48 1.74, 93.85 1.77 C100.22 1.81, 92.28 1.26, 91.91 1.3" stroke="#2f9e44" stroke-width="4" fill="none"></path></g><g transform="translate(59.36776266547628 996.4456127900984) rotate(0 40.053977966308594 17.5)"><text x="40.053977966308594" y="0" font-family="Virgil, Segoe UI Emoji" font-size="28px" fill="#2f9e44" text-anchor="middle" style="white-space: pre;" direction="ltr" dominant-baseline="text-before-edge">idioma</text></g><g stroke-linecap="round"><g transform="translate(308.54917819701603 863.7194763974745) rotate(0 -65.41708348128857 64.92509489208692)"><path d="M-1.08 0.39 C-22.56 21.98, -108.18 107.63, -129.7 129.36 M0.56 -0.45 C-20.91 21.31, -108.18 109.09, -130.06 130.64" stroke="#2f9e44" stroke-width="4" fill="none"></path></g><g transform="translate(308.54917819701603 863.7194763974745) rotate(0 -65.41708348128857 64.92509489208692)"><path d="M-130.98 130.66 L-126.01 118.27 L-116.01 124.79 L-130.23 132.3" stroke="none" stroke-width="0" fill="#2f9e44" fill-rule="evenodd"></path><path d="M-130.06 130.64 C-128.36 128.84, -128.27 124.93, -124.91 116.55 M-130.06 130.64 C-128.42 125.99, -126.39 120.09, -124.91 116.55 M-124.91 116.55 C-121.67 119.95, -121.1 119.8, -115.95 125.53 M-124.91 116.55 C-122.69 119.16, -120.16 120.88, -115.95 125.53 M-115.95 125.53 C-120.43 126.88, -121.67 126.33, -130.06 130.64 M-115.95 125.53 C-118.77 126.61, -122.7 127.57, -130.06 130.64 M-130.06 130.64 C-130.06 130.64, -130.06 130.64, -130.06 130.64 M-130.06 130.64 C-130.06 130.64, -130.06 130.64, -130.06 130.64" stroke="#2f9e44" stroke-width="4" fill="none"></path></g></g><mask></mask><g stroke-linecap="round" transform="translate(11.24999999999983 581.5944763974744) rotate(0 127.07037791001844 42.125)"><path d="M115 -0.8 C130.14 -1.63, 149.65 0.98, 165.36 2.77 C181.06 4.55, 196.94 6.62, 209.23 9.93 C221.52 13.24, 231.61 17.87, 239.1 22.63 C246.59 27.4, 252.55 33.12, 254.15 38.52 C255.75 43.91, 253.52 50.02, 248.71 55 C243.91 59.99, 235.73 64.23, 225.32 68.43 C214.92 72.63, 200.86 77.62, 186.29 80.21 C171.72 82.79, 154.08 83.74, 137.9 83.95 C121.71 84.17, 104.56 83.2, 89.18 81.5 C73.79 79.81, 58.19 76.94, 45.58 73.79 C32.97 70.64, 21.1 67.37, 13.51 62.59 C5.92 57.81, 1.31 50.63, 0.06 45.13 C-1.2 39.62, 0.98 34.52, 5.99 29.55 C11.01 24.59, 19.94 19.49, 30.16 15.36 C40.38 11.23, 52.15 7.49, 67.31 4.78 C82.48 2.08, 111.3 -0.38, 121.15 -0.87 C131 -1.36, 126.16 1.06, 126.4 1.84 M134.83 -0.02 C150.09 0.02, 168.25 2.45, 183.01 5 C197.77 7.55, 212.61 11.43, 223.39 15.31 C234.16 19.2, 242.75 23.35, 247.67 28.32 C252.59 33.29, 253.9 39.85, 252.9 45.14 C251.9 50.42, 248.57 55.5, 241.67 60.03 C234.76 64.57, 223.57 68.69, 211.46 72.35 C199.35 76.01, 184.46 80.18, 169.02 81.99 C153.58 83.81, 135.2 83.4, 118.83 83.25 C102.46 83.11, 85.38 83.35, 70.78 81.14 C56.18 78.92, 41.77 74.25, 31.22 69.95 C20.67 65.64, 12.82 60.55, 7.48 55.3 C2.15 50.05, -1.62 43.82, -0.81 38.43 C-0.01 33.05, 5.14 27.53, 12.31 23 C19.48 18.46, 29.99 14.78, 42.2 11.21 C54.41 7.65, 69.88 3.43, 85.58 1.61 C101.27 -0.21, 128.08 0.5, 136.37 0.3 C144.66 0.11, 135.8 -0.12, 135.34 0.46" stroke="#2f9e44" stroke-width="4" fill="none"></path></g><g transform="translate(59.11608514399677 606.4326032399911) rotate(0 79.35196685791016 17.5)"><text x="79.35196685791016" y="0" font-family="Virgil, Segoe UI Emoji" font-size="28px" fill="#2f9e44" text-anchor="middle" style="white-space: pre;" direction="ltr" dominant-baseline="text-before-edge">temporadas</text></g><g stroke-linecap="round"><g transform="translate(387.0703779100184 539.9694763974744) rotate(0 -56.875 40.625)"><path d="M0.12 -0.37 C-18.91 13.22, -95.68 68.49, -114.75 82.3 M-1.27 -1.62 C-19.89 11.6, -93.55 67, -112.56 80.72" stroke="#2f9e44" stroke-width="4" fill="none"></path></g><g transform="translate(387.0703779100184 539.9694763974744) rotate(0 -56.875 40.625)"><path d="M-114.13 79.78 L-107.36 67.32 L-96.08 79.44 L-110.59 82.59" stroke="none" stroke-width="0" fill="#2f9e44" fill-rule="evenodd"></path><path d="M-112.56 80.72 C-111.29 76.13, -107.7 73.37, -105.39 67.55 M-112.56 80.72 C-110.04 74.83, -106.56 71.01, -105.39 67.55 M-105.39 67.55 C-102.86 71.66, -101.31 73.34, -97.86 77.75 M-105.39 67.55 C-103.19 71.81, -100.28 74.95, -97.86 77.75 M-97.86 77.75 C-102.95 77.42, -105.51 79.55, -112.56 80.72 M-97.86 77.75 C-103.98 79.15, -109.58 80.24, -112.56 80.72 M-112.56 80.72 C-112.56 80.72, -112.56 80.72, -112.56 80.72 M-112.56 80.72 C-112.56 80.72, -112.56 80.72, -112.56 80.72" stroke="#2f9e44" stroke-width="4" fill="none"></path></g></g><mask></mask><g stroke-linecap="round" transform="translate(44.87802387663015 422.9694763974742) rotate(0 107.19235403338826 32)"><path d="M57.9 4.2 C69.55 1.77, 86.25 0.09, 100.88 -0.22 C115.52 -0.54, 132.14 0.71, 145.7 2.31 C159.27 3.91, 172.05 6.51, 182.29 9.36 C192.53 12.2, 201.86 15.2, 207.15 19.39 C212.44 23.57, 214.87 29.85, 214.01 34.48 C213.16 39.11, 208.45 43.36, 202.04 47.17 C195.62 50.98, 186.69 54.68, 175.54 57.33 C164.39 59.98, 149.32 62.04, 135.14 63.07 C120.97 64.1, 104.93 64.11, 90.48 63.52 C76.03 62.93, 60.62 61.75, 48.44 59.53 C36.27 57.32, 25.25 53.93, 17.43 50.22 C9.62 46.51, 3.92 41.78, 1.55 37.28 C-0.83 32.78, -0.57 27.52, 3.17 23.23 C6.91 18.95, 13.64 15.13, 23.97 11.56 C34.3 8, 57.25 3.27, 65.17 1.85 C73.09 0.43, 70.69 2.36, 71.48 3.03 M136.6 1.77 C150.31 2.19, 165.24 4.86, 176.36 7.39 C187.49 9.92, 196.88 13.01, 203.37 16.95 C209.85 20.89, 214.9 26.7, 215.26 31.04 C215.61 35.38, 211.47 38.75, 205.52 43.02 C199.56 47.28, 189.94 53.52, 179.54 56.64 C169.13 59.76, 156.46 60.55, 143.1 61.72 C129.74 62.9, 114.14 64.14, 99.39 63.7 C84.64 63.27, 67.28 60.92, 54.61 59.1 C41.95 57.28, 31.79 56.11, 23.41 52.81 C15.02 49.5, 8.13 43.82, 4.32 39.25 C0.51 34.67, -2.08 29.48, 0.56 25.35 C3.19 21.22, 11.46 17.82, 20.15 14.46 C28.83 11.09, 40.27 7.7, 52.66 5.15 C65.06 2.6, 80.18 -0.04, 94.49 -0.85 C108.81 -1.66, 131.54 -0.16, 138.54 0.3 C145.54 0.76, 137.35 1.31, 136.48 1.92" stroke="#2f9e44" stroke-width="4" fill="none"></path></g><g transform="translate(108.42596079709008 437.3420593995047) rotate(0 43.84797668457031 17.5)"><text x="43.84797668457031" y="0" font-family="Virgil, Segoe UI Emoji" font-size="28px" fill="#2f9e44" text-anchor="middle" style="white-space: pre;" direction="ltr" dominant-baseline="text-before-edge">poster</text></g><g stroke-linecap="round"><g transform="translate(385.8203779100184 472.4694763974744) rotate(0 -58.125 -8.125)"><path d="M-0.33 -0.02 C-19.78 -2.41, -96.57 -12.71, -115.79 -15.46 M1.69 -1.08 C-17.95 -3.71, -96.86 -14.79, -116.49 -17.17" stroke="#2f9e44" stroke-width="4" fill="none"></path></g><g transform="translate(385.8203779100184 472.4694763974744) rotate(0 -58.125 -8.125)"><path d="M-118.01 -15.65 L-103.71 -20.67 L-105.23 -7.71 L-115.44 -17.78" stroke="none" stroke-width="0" fill="#2f9e44" fill-rule="evenodd"></path><path d="M-116.49 -17.17 C-111.13 -18.24, -104.76 -19.78, -102.19 -21.68 M-116.49 -17.17 C-112.22 -19.08, -108.72 -19.33, -102.19 -21.68 M-102.19 -21.68 C-103.91 -18.21, -102.27 -11.87, -103.85 -9.11 M-102.19 -21.68 C-102.63 -17.5, -103.28 -13.36, -103.85 -9.11 M-103.85 -9.11 C-107.82 -11.05, -110.02 -11.65, -116.49 -17.17 M-103.85 -9.11 C-107.6 -10.47, -109.85 -13.04, -116.49 -17.17 M-116.49 -17.17 C-116.49 -17.17, -116.49 -17.17, -116.49 -17.17 M-116.49 -17.17 C-116.49 -17.17, -116.49 -17.17, -116.49 -17.17" stroke="#2f9e44" stroke-width="4" fill="none"></path></g></g><mask></mask></svg>